<?xml version="1.0" encoding="UTF-8"?>
<svg xmlns="http://www.w3.org/2000/svg" xmlns:xlink="http://www.w3.org/1999/xlink" width="576pt" height="360pt" viewBox="0 0 576 360" version="1.1">
<defs>
<g>
<symbol overflow="visible" id="glyph0-0">
<path style="stroke:none;" d="M 0.296875 0 L 0.296875 -6.453125 L 5.421875 -6.453125 L 5.421875 0 Z M 4.609375 -0.8125 L 4.609375 -5.640625 L 1.09375 -5.640625 L 1.09375 -0.8125 Z M 4.609375 -0.8125 "/>
</symbol>
<symbol overflow="visible" id="glyph0-1">
<path style="stroke:none;" d="M 2.34375 0.171875 C 1.59375 0.171875 1.050781 -0.03125 0.71875 -0.4375 C 0.382812 -0.851562 0.21875 -1.351562 0.21875 -1.9375 L 1.046875 -1.9375 C 1.078125 -1.53125 1.148438 -1.234375 1.265625 -1.046875 C 1.472656 -0.710938 1.84375 -0.546875 2.375 -0.546875 C 2.789062 -0.546875 3.125 -0.65625 3.375 -0.875 C 3.632812 -1.101562 3.765625 -1.394531 3.765625 -1.75 C 3.765625 -2.175781 3.628906 -2.472656 3.359375 -2.640625 C 3.097656 -2.816406 2.734375 -2.90625 2.265625 -2.90625 C 2.210938 -2.90625 2.15625 -2.90625 2.09375 -2.90625 C 2.039062 -2.90625 1.988281 -2.90625 1.9375 -2.90625 L 1.9375 -3.609375 C 2.019531 -3.597656 2.085938 -3.585938 2.140625 -3.578125 C 2.191406 -3.578125 2.253906 -3.578125 2.328125 -3.578125 C 2.617188 -3.578125 2.859375 -3.625 3.046875 -3.71875 C 3.378906 -3.882812 3.546875 -4.175781 3.546875 -4.59375 C 3.546875 -4.914062 3.4375 -5.160156 3.21875 -5.328125 C 3 -5.492188 2.738281 -5.578125 2.4375 -5.578125 C 1.90625 -5.578125 1.539062 -5.398438 1.34375 -5.046875 C 1.226562 -4.859375 1.164062 -4.585938 1.15625 -4.234375 L 0.375 -4.234375 C 0.375 -4.703125 0.46875 -5.097656 0.65625 -5.421875 C 0.976562 -6.003906 1.546875 -6.296875 2.359375 -6.296875 C 2.992188 -6.296875 3.488281 -6.148438 3.84375 -5.859375 C 4.195312 -5.578125 4.375 -5.164062 4.375 -4.625 C 4.375 -4.238281 4.269531 -3.925781 4.0625 -3.6875 C 3.9375 -3.539062 3.769531 -3.425781 3.5625 -3.34375 C 3.894531 -3.25 4.148438 -3.070312 4.328125 -2.8125 C 4.515625 -2.550781 4.609375 -2.234375 4.609375 -1.859375 C 4.609375 -1.265625 4.410156 -0.773438 4.015625 -0.390625 C 3.617188 -0.015625 3.0625 0.171875 2.34375 0.171875 Z M 2.34375 0.171875 "/>
</symbol>
<symbol overflow="visible" id="glyph0-2">
<path style="stroke:none;" d="M 0.765625 -0.953125 L 1.6875 -0.953125 L 1.6875 0 L 0.765625 0 Z M 0.765625 -0.953125 "/>
</symbol>
<symbol overflow="visible" id="glyph0-3">
<path style="stroke:none;" d="M 0.28125 0 C 0.3125 -0.539062 0.421875 -1.007812 0.609375 -1.40625 C 0.804688 -1.8125 1.191406 -2.179688 1.765625 -2.515625 L 2.609375 -3 C 2.984375 -3.21875 3.242188 -3.40625 3.390625 -3.5625 C 3.628906 -3.800781 3.75 -4.078125 3.75 -4.390625 C 3.75 -4.753906 3.640625 -5.046875 3.421875 -5.265625 C 3.203125 -5.484375 2.910156 -5.59375 2.546875 -5.59375 C 2.003906 -5.59375 1.628906 -5.382812 1.421875 -4.96875 C 1.304688 -4.75 1.242188 -4.445312 1.234375 -4.0625 L 0.4375 -4.0625 C 0.445312 -4.601562 0.546875 -5.050781 0.734375 -5.40625 C 1.078125 -6.007812 1.679688 -6.3125 2.546875 -6.3125 C 3.273438 -6.3125 3.800781 -6.113281 4.125 -5.71875 C 4.457031 -5.332031 4.625 -4.90625 4.625 -4.4375 C 4.625 -3.925781 4.445312 -3.492188 4.09375 -3.140625 C 3.894531 -2.929688 3.53125 -2.675781 3 -2.375 L 2.390625 -2.046875 C 2.109375 -1.890625 1.882812 -1.738281 1.71875 -1.59375 C 1.425781 -1.34375 1.242188 -1.0625 1.171875 -0.75 L 4.59375 -0.75 L 4.59375 0 Z M 0.28125 0 "/>
</symbol>
<symbol overflow="visible" id="glyph0-4">
<path style="stroke:none;" d="M 2.625 -6.3125 C 3.332031 -6.3125 3.820312 -6.128906 4.09375 -5.765625 C 4.375 -5.398438 4.515625 -5.023438 4.515625 -4.640625 L 3.734375 -4.640625 C 3.691406 -4.890625 3.617188 -5.085938 3.515625 -5.234375 C 3.316406 -5.492188 3.023438 -5.625 2.640625 -5.625 C 2.203125 -5.625 1.851562 -5.421875 1.59375 -5.015625 C 1.332031 -4.609375 1.1875 -4.019531 1.15625 -3.25 C 1.332031 -3.519531 1.5625 -3.722656 1.84375 -3.859375 C 2.09375 -3.972656 2.375 -4.03125 2.6875 -4.03125 C 3.207031 -4.03125 3.664062 -3.859375 4.0625 -3.515625 C 4.457031 -3.179688 4.65625 -2.679688 4.65625 -2.015625 C 4.65625 -1.441406 4.46875 -0.9375 4.09375 -0.5 C 3.71875 -0.0625 3.1875 0.15625 2.5 0.15625 C 1.914062 0.15625 1.410156 -0.0625 0.984375 -0.5 C 0.554688 -0.945312 0.34375 -1.703125 0.34375 -2.765625 C 0.34375 -3.546875 0.4375 -4.207031 0.625 -4.75 C 0.988281 -5.789062 1.65625 -6.3125 2.625 -6.3125 Z M 2.578125 -0.546875 C 2.992188 -0.546875 3.300781 -0.679688 3.5 -0.953125 C 3.707031 -1.234375 3.8125 -1.566406 3.8125 -1.953125 C 3.8125 -2.273438 3.71875 -2.582031 3.53125 -2.875 C 3.351562 -3.164062 3.019531 -3.3125 2.53125 -3.3125 C 2.195312 -3.3125 1.898438 -3.195312 1.640625 -2.96875 C 1.378906 -2.738281 1.25 -2.398438 1.25 -1.953125 C 1.25 -1.554688 1.363281 -1.222656 1.59375 -0.953125 C 1.832031 -0.679688 2.160156 -0.546875 2.578125 -0.546875 Z M 2.578125 -0.546875 "/>
</symbol>
<symbol overflow="visible" id="glyph0-5">
<path style="stroke:none;" d="M 2.96875 -2.234375 L 2.96875 -5.078125 L 0.953125 -2.234375 Z M 2.984375 0 L 2.984375 -1.53125 L 0.234375 -1.53125 L 0.234375 -2.3125 L 3.109375 -6.3125 L 3.78125 -6.3125 L 3.78125 -2.234375 L 4.703125 -2.234375 L 4.703125 -1.53125 L 3.78125 -1.53125 L 3.78125 0 Z M 2.984375 0 "/>
</symbol>
<symbol overflow="visible" id="glyph0-6">
<path style="stroke:none;" d="M 2.4375 -6.296875 C 3.25 -6.296875 3.835938 -5.957031 4.203125 -5.28125 C 4.484375 -4.769531 4.625 -4.0625 4.625 -3.15625 C 4.625 -2.300781 4.492188 -1.59375 4.234375 -1.03125 C 3.867188 -0.226562 3.269531 0.171875 2.4375 0.171875 C 1.675781 0.171875 1.113281 -0.15625 0.75 -0.8125 C 0.4375 -1.363281 0.28125 -2.097656 0.28125 -3.015625 C 0.28125 -3.734375 0.375 -4.347656 0.5625 -4.859375 C 0.90625 -5.816406 1.53125 -6.296875 2.4375 -6.296875 Z M 2.421875 -0.546875 C 2.835938 -0.546875 3.164062 -0.726562 3.40625 -1.09375 C 3.644531 -1.457031 3.765625 -2.132812 3.765625 -3.125 C 3.765625 -3.84375 3.675781 -4.429688 3.5 -4.890625 C 3.332031 -5.347656 2.992188 -5.578125 2.484375 -5.578125 C 2.015625 -5.578125 1.671875 -5.359375 1.453125 -4.921875 C 1.242188 -4.484375 1.140625 -3.835938 1.140625 -2.984375 C 1.140625 -2.347656 1.207031 -1.832031 1.34375 -1.4375 C 1.550781 -0.84375 1.910156 -0.546875 2.421875 -0.546875 Z M 2.421875 -0.546875 "/>
</symbol>
<symbol overflow="visible" id="glyph0-7">
<path style="stroke:none;" d="M 2.453125 -3.65625 C 2.796875 -3.65625 3.066406 -3.75 3.265625 -3.9375 C 3.460938 -4.132812 3.5625 -4.367188 3.5625 -4.640625 C 3.5625 -4.878906 3.46875 -5.09375 3.28125 -5.28125 C 3.09375 -5.476562 2.804688 -5.578125 2.421875 -5.578125 C 2.035156 -5.578125 1.757812 -5.476562 1.59375 -5.28125 C 1.425781 -5.09375 1.34375 -4.863281 1.34375 -4.59375 C 1.34375 -4.300781 1.453125 -4.070312 1.671875 -3.90625 C 1.890625 -3.738281 2.148438 -3.65625 2.453125 -3.65625 Z M 2.5 -0.546875 C 2.863281 -0.546875 3.164062 -0.644531 3.40625 -0.84375 C 3.644531 -1.039062 3.765625 -1.332031 3.765625 -1.71875 C 3.765625 -2.125 3.640625 -2.429688 3.390625 -2.640625 C 3.148438 -2.859375 2.832031 -2.96875 2.4375 -2.96875 C 2.0625 -2.96875 1.753906 -2.859375 1.515625 -2.640625 C 1.273438 -2.429688 1.15625 -2.132812 1.15625 -1.75 C 1.15625 -1.414062 1.265625 -1.128906 1.484375 -0.890625 C 1.703125 -0.660156 2.039062 -0.546875 2.5 -0.546875 Z M 1.375 -3.359375 C 1.15625 -3.453125 0.984375 -3.5625 0.859375 -3.6875 C 0.628906 -3.914062 0.515625 -4.21875 0.515625 -4.59375 C 0.515625 -5.0625 0.679688 -5.460938 1.015625 -5.796875 C 1.359375 -6.140625 1.84375 -6.3125 2.46875 -6.3125 C 3.070312 -6.3125 3.546875 -6.148438 3.890625 -5.828125 C 4.234375 -5.515625 4.40625 -5.144531 4.40625 -4.71875 C 4.40625 -4.320312 4.300781 -4.003906 4.09375 -3.765625 C 3.988281 -3.628906 3.816406 -3.492188 3.578125 -3.359375 C 3.835938 -3.242188 4.046875 -3.109375 4.203125 -2.953125 C 4.472656 -2.660156 4.609375 -2.28125 4.609375 -1.8125 C 4.609375 -1.25 4.421875 -0.773438 4.046875 -0.390625 C 3.679688 -0.00390625 3.160156 0.1875 2.484375 0.1875 C 1.867188 0.1875 1.347656 0.0195312 0.921875 -0.3125 C 0.503906 -0.644531 0.296875 -1.128906 0.296875 -1.765625 C 0.296875 -2.140625 0.382812 -2.460938 0.5625 -2.734375 C 0.738281 -3.003906 1.007812 -3.210938 1.375 -3.359375 Z M 1.375 -3.359375 "/>
</symbol>
<symbol overflow="visible" id="glyph0-8">
<path style="stroke:none;" d="M 1.109375 -1.609375 C 1.160156 -1.148438 1.367188 -0.835938 1.734375 -0.671875 C 1.921875 -0.578125 2.140625 -0.53125 2.390625 -0.53125 C 2.859375 -0.53125 3.203125 -0.679688 3.421875 -0.984375 C 3.648438 -1.285156 3.765625 -1.617188 3.765625 -1.984375 C 3.765625 -2.421875 3.628906 -2.757812 3.359375 -3 C 3.097656 -3.238281 2.78125 -3.359375 2.40625 -3.359375 C 2.132812 -3.359375 1.898438 -3.304688 1.703125 -3.203125 C 1.503906 -3.097656 1.335938 -2.953125 1.203125 -2.765625 L 0.515625 -2.796875 L 1 -6.1875 L 4.265625 -6.1875 L 4.265625 -5.421875 L 1.59375 -5.421875 L 1.328125 -3.671875 C 1.472656 -3.785156 1.609375 -3.867188 1.734375 -3.921875 C 1.972656 -4.015625 2.242188 -4.0625 2.546875 -4.0625 C 3.128906 -4.0625 3.617188 -3.875 4.015625 -3.5 C 4.421875 -3.132812 4.625 -2.664062 4.625 -2.09375 C 4.625 -1.5 4.4375 -0.972656 4.0625 -0.515625 C 3.695312 -0.0664062 3.113281 0.15625 2.3125 0.15625 C 1.800781 0.15625 1.347656 0.015625 0.953125 -0.265625 C 0.554688 -0.554688 0.335938 -1.003906 0.296875 -1.609375 Z M 1.109375 -1.609375 "/>
</symbol>
<symbol overflow="visible" id="glyph0-9">
<path style="stroke:none;" d="M 0.375 -2.90625 L 2.578125 -2.90625 L 2.578125 -2.09375 L 0.375 -2.09375 Z M 0.375 -2.90625 "/>
</symbol>
<symbol overflow="visible" id="glyph0-10">
<path style="stroke:none;" d="M 0.859375 -4.453125 L 0.859375 -5.0625 C 1.429688 -5.113281 1.828125 -5.203125 2.046875 -5.328125 C 2.273438 -5.460938 2.445312 -5.773438 2.5625 -6.265625 L 3.1875 -6.265625 L 3.1875 0 L 2.34375 0 L 2.34375 -4.453125 Z M 0.859375 -4.453125 "/>
</symbol>
<symbol overflow="visible" id="glyph0-11">
<path style="stroke:none;" d="M 4.703125 -6.1875 L 4.703125 -5.5 C 4.503906 -5.300781 4.234375 -4.957031 3.890625 -4.46875 C 3.554688 -3.988281 3.265625 -3.46875 3.015625 -2.90625 C 2.753906 -2.351562 2.5625 -1.851562 2.4375 -1.40625 C 2.34375 -1.113281 2.226562 -0.644531 2.09375 0 L 1.21875 0 C 1.425781 -1.195312 1.867188 -2.394531 2.546875 -3.59375 C 2.941406 -4.28125 3.363281 -4.878906 3.8125 -5.390625 L 0.328125 -5.390625 L 0.328125 -6.1875 Z M 4.703125 -6.1875 "/>
</symbol>
<symbol overflow="visible" id="glyph1-0">
<path style="stroke:none;" d="M 0 -0.328125 L -7.171875 -0.328125 L -7.171875 -6.015625 L 0 -6.015625 Z M -0.90625 -5.125 L -6.28125 -5.125 L -6.28125 -1.21875 L -0.90625 -1.21875 Z M -0.90625 -5.125 "/>
</symbol>
<symbol overflow="visible" id="glyph1-1">
<path style="stroke:none;" d="M -7.171875 -0.859375 L -7.171875 -4.078125 C -7.171875 -4.722656 -6.988281 -5.238281 -6.625 -5.625 C -6.269531 -6.019531 -5.769531 -6.21875 -5.125 -6.21875 C -4.5625 -6.21875 -4.070312 -6.039062 -3.65625 -5.6875 C -3.238281 -5.34375 -3.03125 -4.804688 -3.03125 -4.078125 L -3.03125 -1.828125 L 0 -1.828125 L 0 -0.859375 Z M -5.109375 -5.234375 C -5.640625 -5.234375 -6 -5.035156 -6.1875 -4.640625 C -6.289062 -4.429688 -6.34375 -4.140625 -6.34375 -3.765625 L -6.34375 -1.828125 L -3.859375 -1.828125 L -3.859375 -3.765625 C -3.859375 -4.203125 -3.945312 -4.554688 -4.125 -4.828125 C -4.3125 -5.097656 -4.640625 -5.234375 -5.109375 -5.234375 Z M -5.109375 -5.234375 "/>
</symbol>
<symbol overflow="visible" id="glyph1-2">
<path style="stroke:none;" d="M -5.34375 -2.828125 C -5.34375 -3.191406 -5.253906 -3.546875 -5.078125 -3.890625 C -4.910156 -4.242188 -4.6875 -4.515625 -4.40625 -4.703125 C -4.144531 -4.878906 -3.835938 -4.992188 -3.484375 -5.046875 C -3.242188 -5.097656 -2.859375 -5.125 -2.328125 -5.125 L -2.328125 -1.296875 C -1.796875 -1.304688 -1.367188 -1.425781 -1.046875 -1.65625 C -0.734375 -1.894531 -0.578125 -2.265625 -0.578125 -2.765625 C -0.578125 -3.222656 -0.726562 -3.585938 -1.03125 -3.859375 C -1.207031 -4.015625 -1.410156 -4.125 -1.640625 -4.1875 L -1.640625 -5.046875 C -1.453125 -5.023438 -1.238281 -4.953125 -1 -4.828125 C -0.757812 -4.703125 -0.566406 -4.554688 -0.421875 -4.390625 C -0.160156 -4.128906 0.015625 -3.800781 0.109375 -3.40625 C 0.160156 -3.195312 0.1875 -2.957031 0.1875 -2.6875 C 0.1875 -2.03125 -0.046875 -1.476562 -0.515625 -1.03125 C -0.992188 -0.582031 -1.660156 -0.359375 -2.515625 -0.359375 C -3.359375 -0.359375 -4.039062 -0.582031 -4.5625 -1.03125 C -5.082031 -1.488281 -5.34375 -2.085938 -5.34375 -2.828125 Z M -3.03125 -4.21875 C -3.414062 -4.1875 -3.722656 -4.101562 -3.953125 -3.96875 C -4.367188 -3.726562 -4.578125 -3.328125 -4.578125 -2.765625 C -4.578125 -2.359375 -4.429688 -2.019531 -4.140625 -1.75 C -3.847656 -1.476562 -3.476562 -1.332031 -3.03125 -1.3125 Z M -5.359375 -2.734375 Z M -5.359375 -2.734375 "/>
</symbol>
<symbol overflow="visible" id="glyph1-3">
<path style="stroke:none;" d="M -5.234375 -0.671875 L -5.234375 -1.5 L -4.328125 -1.5 C -4.503906 -1.570312 -4.71875 -1.738281 -4.96875 -2 C -5.21875 -2.269531 -5.34375 -2.582031 -5.34375 -2.9375 C -5.34375 -2.945312 -5.34375 -2.972656 -5.34375 -3.015625 C -5.34375 -3.054688 -5.335938 -3.125 -5.328125 -3.21875 L -4.390625 -3.21875 C -4.398438 -3.164062 -4.40625 -3.113281 -4.40625 -3.0625 C -4.414062 -3.019531 -4.421875 -2.972656 -4.421875 -2.921875 C -4.421875 -2.484375 -4.273438 -2.144531 -3.984375 -1.90625 C -3.703125 -1.664062 -3.378906 -1.546875 -3.015625 -1.546875 L 0 -1.546875 L 0 -0.671875 Z M -5.234375 -0.671875 "/>
</symbol>
<symbol overflow="visible" id="glyph1-4">
<path style="stroke:none;" d="M -5.375 -2.65625 C -5.375 -3.25 -5.226562 -3.726562 -4.9375 -4.09375 C -4.65625 -4.46875 -4.164062 -4.691406 -3.46875 -4.765625 L -3.46875 -3.90625 C -3.789062 -3.851562 -4.054688 -3.734375 -4.265625 -3.546875 C -4.484375 -3.367188 -4.59375 -3.070312 -4.59375 -2.65625 C -4.59375 -2.101562 -4.320312 -1.703125 -3.78125 -1.453125 C -3.425781 -1.296875 -2.988281 -1.21875 -2.46875 -1.21875 C -1.9375 -1.21875 -1.488281 -1.328125 -1.125 -1.546875 C -0.769531 -1.773438 -0.59375 -2.128906 -0.59375 -2.609375 C -0.59375 -2.972656 -0.703125 -3.257812 -0.921875 -3.46875 C -1.148438 -3.6875 -1.457031 -3.832031 -1.84375 -3.90625 L -1.84375 -4.765625 C -1.15625 -4.671875 -0.648438 -4.425781 -0.328125 -4.03125 C -0.00390625 -3.644531 0.15625 -3.144531 0.15625 -2.53125 C 0.15625 -1.851562 -0.09375 -1.304688 -0.59375 -0.890625 C -1.09375 -0.484375 -1.71875 -0.28125 -2.46875 -0.28125 C -3.382812 -0.28125 -4.097656 -0.503906 -4.609375 -0.953125 C -5.117188 -1.398438 -5.375 -1.96875 -5.375 -2.65625 Z M -5.359375 -2.53125 Z M -5.359375 -2.53125 "/>
</symbol>
<symbol overflow="visible" id="glyph1-5">
<path style="stroke:none;" d="M -5.234375 -0.640625 L -5.234375 -1.484375 L -4.484375 -1.484375 C -4.796875 -1.722656 -5.015625 -1.984375 -5.140625 -2.265625 C -5.273438 -2.546875 -5.34375 -2.851562 -5.34375 -3.1875 C -5.34375 -3.925781 -5.085938 -4.425781 -4.578125 -4.6875 C -4.285156 -4.832031 -3.878906 -4.90625 -3.359375 -4.90625 L 0 -4.90625 L 0 -4.015625 L -3.296875 -4.015625 C -3.617188 -4.015625 -3.875 -3.96875 -4.0625 -3.875 C -4.394531 -3.71875 -4.5625 -3.429688 -4.5625 -3.015625 C -4.5625 -2.804688 -4.539062 -2.640625 -4.5 -2.515625 C -4.425781 -2.273438 -4.28125 -2.0625 -4.0625 -1.875 C -3.882812 -1.726562 -3.703125 -1.632812 -3.515625 -1.59375 C -3.335938 -1.550781 -3.078125 -1.53125 -2.734375 -1.53125 L 0 -1.53125 L 0 -0.640625 Z M -5.359375 -2.703125 Z M -5.359375 -2.703125 "/>
</symbol>
<symbol overflow="visible" id="glyph1-6">
<path style="stroke:none;" d="M -6.6875 -0.828125 L -6.6875 -1.703125 L -5.234375 -1.703125 L -5.234375 -2.546875 L -4.515625 -2.546875 L -4.515625 -1.703125 L -1.09375 -1.703125 C -0.914062 -1.703125 -0.796875 -1.765625 -0.734375 -1.890625 C -0.691406 -1.960938 -0.671875 -2.078125 -0.671875 -2.234375 C -0.671875 -2.273438 -0.671875 -2.320312 -0.671875 -2.375 C -0.679688 -2.425781 -0.6875 -2.484375 -0.6875 -2.546875 L 0 -2.546875 C 0.03125 -2.441406 0.0507812 -2.332031 0.0625 -2.21875 C 0.0703125 -2.113281 0.078125 -2 0.078125 -1.875 C 0.078125 -1.46875 -0.0234375 -1.191406 -0.234375 -1.046875 C -0.441406 -0.898438 -0.710938 -0.828125 -1.046875 -0.828125 L -4.515625 -0.828125 L -4.515625 -0.109375 L -5.234375 -0.109375 L -5.234375 -0.828125 Z M -6.6875 -0.828125 "/>
</symbol>
<symbol overflow="visible" id="glyph2-0">
<path style="stroke:none;" d="M 0.28125 0 L 0.28125 -6.09375 L 5.109375 -6.09375 L 5.109375 0 Z M 4.34375 -0.765625 L 4.34375 -5.328125 L 1.03125 -5.328125 L 1.03125 -0.765625 Z M 4.34375 -0.765625 "/>
</symbol>
<symbol overflow="visible" id="glyph2-1">
<path style="stroke:none;" d="M 2.421875 -0.5 C 2.773438 -0.5 3.066406 -0.644531 3.296875 -0.9375 C 3.523438 -1.226562 3.640625 -1.664062 3.640625 -2.25 C 3.640625 -2.601562 3.585938 -2.90625 3.484375 -3.15625 C 3.296875 -3.644531 2.941406 -3.890625 2.421875 -3.890625 C 1.898438 -3.890625 1.546875 -3.632812 1.359375 -3.125 C 1.253906 -2.84375 1.203125 -2.488281 1.203125 -2.0625 C 1.203125 -1.71875 1.253906 -1.425781 1.359375 -1.1875 C 1.554688 -0.726562 1.910156 -0.5 2.421875 -0.5 Z M 0.484375 -4.421875 L 1.21875 -4.421875 L 1.21875 -3.828125 C 1.363281 -4.035156 1.523438 -4.191406 1.703125 -4.296875 C 1.953125 -4.460938 2.25 -4.546875 2.59375 -4.546875 C 3.09375 -4.546875 3.519531 -4.351562 3.875 -3.96875 C 4.226562 -3.582031 4.40625 -3.03125 4.40625 -2.3125 C 4.40625 -1.351562 4.148438 -0.664062 3.640625 -0.25 C 3.316406 0.0195312 2.945312 0.15625 2.53125 0.15625 C 2.1875 0.15625 1.90625 0.078125 1.6875 -0.078125 C 1.550781 -0.148438 1.398438 -0.289062 1.234375 -0.5 L 1.234375 1.765625 L 0.484375 1.765625 Z M 0.484375 -4.421875 "/>
</symbol>
<symbol overflow="visible" id="glyph2-2">
<path style="stroke:none;" d="M 2.3125 -0.484375 C 2.8125 -0.484375 3.148438 -0.671875 3.328125 -1.046875 C 3.515625 -1.421875 3.609375 -1.835938 3.609375 -2.296875 C 3.609375 -2.710938 3.539062 -3.050781 3.40625 -3.3125 C 3.195312 -3.71875 2.832031 -3.921875 2.3125 -3.921875 C 1.863281 -3.921875 1.535156 -3.742188 1.328125 -3.390625 C 1.117188 -3.046875 1.015625 -2.628906 1.015625 -2.140625 C 1.015625 -1.660156 1.117188 -1.265625 1.328125 -0.953125 C 1.535156 -0.640625 1.863281 -0.484375 2.3125 -0.484375 Z M 2.34375 -4.578125 C 2.914062 -4.578125 3.398438 -4.382812 3.796875 -4 C 4.191406 -3.613281 4.390625 -3.050781 4.390625 -2.3125 C 4.390625 -1.59375 4.210938 -1 3.859375 -0.53125 C 3.515625 -0.0703125 2.972656 0.15625 2.234375 0.15625 C 1.628906 0.15625 1.144531 -0.046875 0.78125 -0.453125 C 0.425781 -0.867188 0.25 -1.425781 0.25 -2.125 C 0.25 -2.875 0.4375 -3.46875 0.8125 -3.90625 C 1.1875 -4.351562 1.695312 -4.578125 2.34375 -4.578125 Z M 2.3125 -4.546875 Z M 2.3125 -4.546875 "/>
</symbol>
<symbol overflow="visible" id="glyph2-3">
<path style="stroke:none;" d="M 0.5625 -6.09375 L 1.3125 -6.09375 L 1.3125 0 L 0.5625 0 Z M 0.5625 -6.09375 "/>
</symbol>
<symbol overflow="visible" id="glyph2-4">
<path style="stroke:none;" d="M 0.546875 -4.421875 L 1.3125 -4.421875 L 1.3125 0 L 0.546875 0 Z M 0.546875 -6.09375 L 1.3125 -6.09375 L 1.3125 -5.25 L 0.546875 -5.25 Z M 0.546875 -6.09375 "/>
</symbol>
<symbol overflow="visible" id="glyph2-5">
<path style="stroke:none;" d="M 2.265625 -4.578125 C 2.765625 -4.578125 3.171875 -4.453125 3.484375 -4.203125 C 3.796875 -3.960938 3.984375 -3.546875 4.046875 -2.953125 L 3.328125 -2.953125 C 3.285156 -3.222656 3.179688 -3.445312 3.015625 -3.625 C 2.859375 -3.8125 2.609375 -3.90625 2.265625 -3.90625 C 1.785156 -3.90625 1.441406 -3.671875 1.234375 -3.203125 C 1.109375 -2.898438 1.046875 -2.53125 1.046875 -2.09375 C 1.046875 -1.644531 1.140625 -1.269531 1.328125 -0.96875 C 1.515625 -0.664062 1.8125 -0.515625 2.21875 -0.515625 C 2.519531 -0.515625 2.757812 -0.609375 2.9375 -0.796875 C 3.125 -0.984375 3.253906 -1.242188 3.328125 -1.578125 L 4.046875 -1.578125 C 3.960938 -0.984375 3.753906 -0.550781 3.421875 -0.28125 C 3.097656 -0.0078125 2.675781 0.125 2.15625 0.125 C 1.570312 0.125 1.109375 -0.0820312 0.765625 -0.5 C 0.421875 -0.925781 0.25 -1.457031 0.25 -2.09375 C 0.25 -2.875 0.4375 -3.484375 0.8125 -3.921875 C 1.1875 -4.359375 1.671875 -4.578125 2.265625 -4.578125 Z M 2.140625 -4.546875 Z M 2.140625 -4.546875 "/>
</symbol>
<symbol overflow="visible" id="glyph2-6">
<path style="stroke:none;" d="M 3.328125 -4.4375 L 4.15625 -4.4375 C 4.050781 -4.15625 3.816406 -3.507812 3.453125 -2.5 C 3.179688 -1.726562 2.953125 -1.101562 2.765625 -0.625 C 2.335938 0.507812 2.035156 1.203125 1.859375 1.453125 C 1.679688 1.703125 1.375 1.828125 0.9375 1.828125 C 0.832031 1.828125 0.75 1.820312 0.6875 1.8125 C 0.632812 1.800781 0.566406 1.785156 0.484375 1.765625 L 0.484375 1.078125 C 0.617188 1.117188 0.710938 1.140625 0.765625 1.140625 C 0.828125 1.148438 0.878906 1.15625 0.921875 1.15625 C 1.066406 1.15625 1.171875 1.132812 1.234375 1.09375 C 1.296875 1.050781 1.347656 0.992188 1.390625 0.921875 C 1.410156 0.898438 1.460938 0.785156 1.546875 0.578125 C 1.628906 0.378906 1.691406 0.226562 1.734375 0.125 L 0.09375 -4.4375 L 0.9375 -4.4375 L 2.125 -0.828125 Z M 2.125 -4.546875 Z M 2.125 -4.546875 "/>
</symbol>
<symbol overflow="visible" id="glyph2-7">
<path style="stroke:none;" d="M 0 1.0625 L 0 0.640625 L 4.734375 0.640625 L 4.734375 1.0625 Z M 0 1.0625 "/>
</symbol>
<symbol overflow="visible" id="glyph2-8">
<path style="stroke:none;" d="M 0.5625 -4.4375 L 1.28125 -4.4375 L 1.28125 -3.671875 C 1.332031 -3.828125 1.472656 -4.007812 1.703125 -4.21875 C 1.929688 -4.4375 2.191406 -4.546875 2.484375 -4.546875 C 2.503906 -4.546875 2.53125 -4.539062 2.5625 -4.53125 C 2.59375 -4.53125 2.648438 -4.53125 2.734375 -4.53125 L 2.734375 -3.734375 C 2.691406 -3.742188 2.648438 -3.75 2.609375 -3.75 C 2.566406 -3.75 2.523438 -3.75 2.484375 -3.75 C 2.109375 -3.75 1.816406 -3.628906 1.609375 -3.390625 C 1.410156 -3.148438 1.3125 -2.875 1.3125 -2.5625 L 1.3125 0 L 0.5625 0 Z M 0.5625 -4.4375 "/>
</symbol>
<symbol overflow="visible" id="glyph2-9">
<path style="stroke:none;" d="M 1.125 -1.1875 C 1.125 -0.96875 1.203125 -0.796875 1.359375 -0.671875 C 1.515625 -0.546875 1.703125 -0.484375 1.921875 -0.484375 C 2.179688 -0.484375 2.4375 -0.546875 2.6875 -0.671875 C 3.09375 -0.867188 3.296875 -1.195312 3.296875 -1.65625 L 3.296875 -2.265625 C 3.210938 -2.203125 3.097656 -2.148438 2.953125 -2.109375 C 2.804688 -2.078125 2.664062 -2.050781 2.53125 -2.03125 L 2.078125 -1.96875 C 1.804688 -1.9375 1.601562 -1.882812 1.46875 -1.8125 C 1.238281 -1.675781 1.125 -1.46875 1.125 -1.1875 Z M 2.9375 -2.6875 C 3.101562 -2.71875 3.21875 -2.789062 3.28125 -2.90625 C 3.3125 -2.976562 3.328125 -3.078125 3.328125 -3.203125 C 3.328125 -3.453125 3.234375 -3.632812 3.046875 -3.75 C 2.867188 -3.863281 2.613281 -3.921875 2.28125 -3.921875 C 1.882812 -3.921875 1.601562 -3.816406 1.4375 -3.609375 C 1.351562 -3.492188 1.296875 -3.320312 1.265625 -3.09375 L 0.5625 -3.09375 C 0.582031 -3.632812 0.757812 -4.007812 1.09375 -4.21875 C 1.4375 -4.4375 1.835938 -4.546875 2.296875 -4.546875 C 2.816406 -4.546875 3.238281 -4.445312 3.5625 -4.25 C 3.882812 -4.050781 4.046875 -3.742188 4.046875 -3.328125 L 4.046875 -0.765625 C 4.046875 -0.679688 4.0625 -0.613281 4.09375 -0.5625 C 4.125 -0.519531 4.191406 -0.5 4.296875 -0.5 C 4.328125 -0.5 4.363281 -0.5 4.40625 -0.5 C 4.445312 -0.507812 4.492188 -0.519531 4.546875 -0.53125 L 4.546875 0.015625 C 4.429688 0.0546875 4.34375 0.078125 4.28125 0.078125 C 4.21875 0.0859375 4.132812 0.09375 4.03125 0.09375 C 3.769531 0.09375 3.582031 0.00390625 3.46875 -0.171875 C 3.40625 -0.273438 3.363281 -0.414062 3.34375 -0.59375 C 3.1875 -0.394531 2.96875 -0.21875 2.6875 -0.0625 C 2.40625 0.0820312 2.09375 0.15625 1.75 0.15625 C 1.332031 0.15625 0.992188 0.03125 0.734375 -0.21875 C 0.472656 -0.476562 0.34375 -0.796875 0.34375 -1.171875 C 0.34375 -1.578125 0.46875 -1.894531 0.71875 -2.125 C 0.976562 -2.351562 1.316406 -2.492188 1.734375 -2.546875 Z M 2.3125 -4.546875 Z M 2.3125 -4.546875 "/>
</symbol>
<symbol overflow="visible" id="glyph2-10">
<path style="stroke:none;" d="M 0.703125 -5.6875 L 1.453125 -5.6875 L 1.453125 -4.4375 L 2.15625 -4.4375 L 2.15625 -3.828125 L 1.453125 -3.828125 L 1.453125 -0.9375 C 1.453125 -0.78125 1.503906 -0.675781 1.609375 -0.625 C 1.671875 -0.59375 1.769531 -0.578125 1.90625 -0.578125 C 1.9375 -0.578125 1.972656 -0.578125 2.015625 -0.578125 C 2.054688 -0.578125 2.101562 -0.582031 2.15625 -0.59375 L 2.15625 0 C 2.070312 0.0195312 1.984375 0.0351562 1.890625 0.046875 C 1.796875 0.0664062 1.695312 0.078125 1.59375 0.078125 C 1.25 0.078125 1.015625 -0.0078125 0.890625 -0.1875 C 0.765625 -0.375 0.703125 -0.609375 0.703125 -0.890625 L 0.703125 -3.828125 L 0.09375 -3.828125 L 0.09375 -4.4375 L 0.703125 -4.4375 Z M 0.703125 -5.6875 "/>
</symbol>
<symbol overflow="visible" id="glyph2-11">
<path style="stroke:none;" d="M 2.40625 -4.546875 C 2.71875 -4.546875 3.019531 -4.46875 3.3125 -4.3125 C 3.613281 -4.164062 3.84375 -3.976562 4 -3.75 C 4.144531 -3.519531 4.242188 -3.257812 4.296875 -2.96875 C 4.335938 -2.757812 4.359375 -2.429688 4.359375 -1.984375 L 1.09375 -1.984375 C 1.113281 -1.535156 1.222656 -1.171875 1.421875 -0.890625 C 1.617188 -0.617188 1.925781 -0.484375 2.34375 -0.484375 C 2.738281 -0.484375 3.050781 -0.613281 3.28125 -0.875 C 3.414062 -1.019531 3.507812 -1.191406 3.5625 -1.390625 L 4.296875 -1.390625 C 4.273438 -1.234375 4.207031 -1.050781 4.09375 -0.84375 C 3.988281 -0.644531 3.867188 -0.484375 3.734375 -0.359375 C 3.503906 -0.140625 3.222656 0.0078125 2.890625 0.09375 C 2.710938 0.132812 2.507812 0.15625 2.28125 0.15625 C 1.726562 0.15625 1.257812 -0.0390625 0.875 -0.4375 C 0.488281 -0.84375 0.296875 -1.410156 0.296875 -2.140625 C 0.296875 -2.847656 0.488281 -3.425781 0.875 -3.875 C 1.269531 -4.320312 1.78125 -4.546875 2.40625 -4.546875 Z M 3.59375 -2.578125 C 3.5625 -2.898438 3.488281 -3.160156 3.375 -3.359375 C 3.175781 -3.710938 2.835938 -3.890625 2.359375 -3.890625 C 2.015625 -3.890625 1.722656 -3.765625 1.484375 -3.515625 C 1.253906 -3.273438 1.132812 -2.960938 1.125 -2.578125 Z M 2.328125 -4.546875 Z M 2.328125 -4.546875 "/>
</symbol>
<symbol overflow="visible" id="glyph2-12">
<path style="stroke:none;" d="M 0.890625 -4.4375 L 1.75 -0.9375 L 2.609375 -4.4375 L 3.453125 -4.4375 L 4.328125 -0.96875 L 5.234375 -4.4375 L 5.984375 -4.4375 L 4.6875 0 L 3.90625 0 L 3.015625 -3.4375 L 2.140625 0 L 1.359375 0 L 0.078125 -4.4375 Z M 0.890625 -4.4375 "/>
</symbol>
<symbol overflow="visible" id="glyph2-13">
<path style="stroke:none;" d="M 0.546875 -4.4375 L 1.25 -4.4375 L 1.25 -3.8125 C 1.46875 -4.070312 1.691406 -4.257812 1.921875 -4.375 C 2.160156 -4.488281 2.421875 -4.546875 2.703125 -4.546875 C 3.335938 -4.546875 3.765625 -4.328125 3.984375 -3.890625 C 4.109375 -3.648438 4.171875 -3.300781 4.171875 -2.84375 L 4.171875 0 L 3.40625 0 L 3.40625 -2.796875 C 3.40625 -3.066406 3.367188 -3.285156 3.296875 -3.453125 C 3.160156 -3.734375 2.914062 -3.875 2.5625 -3.875 C 2.382812 -3.875 2.242188 -3.851562 2.140625 -3.8125 C 1.929688 -3.757812 1.75 -3.640625 1.59375 -3.453125 C 1.46875 -3.304688 1.382812 -3.15625 1.34375 -3 C 1.3125 -2.84375 1.296875 -2.617188 1.296875 -2.328125 L 1.296875 0 L 0.546875 0 Z M 2.296875 -4.546875 Z M 2.296875 -4.546875 "/>
</symbol>
<symbol overflow="visible" id="glyph3-0">
<path style="stroke:none;" d="M 0.328125 0 L 0.328125 -7.171875 L 6.015625 -7.171875 L 6.015625 0 Z M 5.125 -0.90625 L 5.125 -6.28125 L 1.21875 -6.28125 L 1.21875 -0.90625 Z M 5.125 -0.90625 "/>
</symbol>
<symbol overflow="visible" id="glyph3-1">
<path style="stroke:none;" d="M 1.390625 -2.3125 C 1.421875 -1.90625 1.519531 -1.578125 1.6875 -1.328125 C 2.007812 -0.847656 2.578125 -0.609375 3.390625 -0.609375 C 3.753906 -0.609375 4.085938 -0.660156 4.390625 -0.765625 C 4.960938 -0.960938 5.25 -1.320312 5.25 -1.84375 C 5.25 -2.238281 5.128906 -2.519531 4.890625 -2.6875 C 4.640625 -2.851562 4.25 -2.992188 3.71875 -3.109375 L 2.75 -3.328125 C 2.113281 -3.472656 1.664062 -3.628906 1.40625 -3.796875 C 0.945312 -4.097656 0.71875 -4.546875 0.71875 -5.140625 C 0.71875 -5.785156 0.941406 -6.316406 1.390625 -6.734375 C 1.835938 -7.148438 2.46875 -7.359375 3.28125 -7.359375 C 4.039062 -7.359375 4.679688 -7.175781 5.203125 -6.8125 C 5.722656 -6.445312 5.984375 -5.863281 5.984375 -5.0625 L 5.078125 -5.0625 C 5.023438 -5.445312 4.921875 -5.742188 4.765625 -5.953125 C 4.472656 -6.328125 3.96875 -6.515625 3.25 -6.515625 C 2.675781 -6.515625 2.265625 -6.394531 2.015625 -6.15625 C 1.765625 -5.914062 1.640625 -5.632812 1.640625 -5.3125 C 1.640625 -4.957031 1.785156 -4.703125 2.078125 -4.546875 C 2.273438 -4.441406 2.710938 -4.3125 3.390625 -4.15625 L 4.390625 -3.921875 C 4.878906 -3.804688 5.253906 -3.65625 5.515625 -3.46875 C 5.972656 -3.132812 6.203125 -2.644531 6.203125 -2 C 6.203125 -1.207031 5.910156 -0.640625 5.328125 -0.296875 C 4.753906 0.0351562 4.085938 0.203125 3.328125 0.203125 C 2.429688 0.203125 1.726562 -0.0195312 1.21875 -0.46875 C 0.71875 -0.925781 0.472656 -1.539062 0.484375 -2.3125 Z M 3.359375 -7.375 Z M 3.359375 -7.375 "/>
</symbol>
<symbol overflow="visible" id="glyph3-2">
<path style="stroke:none;" d="M 0.828125 -6.6875 L 1.703125 -6.6875 L 1.703125 -5.234375 L 2.546875 -5.234375 L 2.546875 -4.515625 L 1.703125 -4.515625 L 1.703125 -1.09375 C 1.703125 -0.914062 1.765625 -0.796875 1.890625 -0.734375 C 1.960938 -0.691406 2.078125 -0.671875 2.234375 -0.671875 C 2.273438 -0.671875 2.320312 -0.671875 2.375 -0.671875 C 2.425781 -0.679688 2.484375 -0.6875 2.546875 -0.6875 L 2.546875 0 C 2.441406 0.03125 2.332031 0.0507812 2.21875 0.0625 C 2.113281 0.0703125 2 0.078125 1.875 0.078125 C 1.46875 0.078125 1.191406 -0.0234375 1.046875 -0.234375 C 0.898438 -0.441406 0.828125 -0.710938 0.828125 -1.046875 L 0.828125 -4.515625 L 0.109375 -4.515625 L 0.109375 -5.234375 L 0.828125 -5.234375 Z M 0.828125 -6.6875 "/>
</symbol>
<symbol overflow="visible" id="glyph3-3">
<path style="stroke:none;" d="M 3.90625 -5.234375 L 4.890625 -5.234375 C 4.765625 -4.898438 4.488281 -4.132812 4.0625 -2.9375 C 3.738281 -2.039062 3.46875 -1.304688 3.25 -0.734375 C 2.75 0.597656 2.394531 1.410156 2.1875 1.703125 C 1.976562 1.992188 1.617188 2.140625 1.109375 2.140625 C 0.984375 2.140625 0.882812 2.132812 0.8125 2.125 C 0.75 2.113281 0.671875 2.097656 0.578125 2.078125 L 0.578125 1.28125 C 0.734375 1.320312 0.84375 1.347656 0.90625 1.359375 C 0.976562 1.367188 1.039062 1.375 1.09375 1.375 C 1.25 1.375 1.363281 1.34375 1.4375 1.28125 C 1.519531 1.226562 1.585938 1.164062 1.640625 1.09375 C 1.660156 1.0625 1.71875 0.925781 1.8125 0.6875 C 1.914062 0.445312 1.988281 0.269531 2.03125 0.15625 L 0.109375 -5.234375 L 1.09375 -5.234375 L 2.5 -0.96875 Z M 2.5 -5.359375 Z M 2.5 -5.359375 "/>
</symbol>
<symbol overflow="visible" id="glyph3-4">
<path style="stroke:none;" d="M 0.671875 -7.171875 L 1.546875 -7.171875 L 1.546875 0 L 0.671875 0 Z M 0.671875 -7.171875 "/>
</symbol>
<symbol overflow="visible" id="glyph3-5">
<path style="stroke:none;" d="M 2.828125 -5.34375 C 3.191406 -5.34375 3.546875 -5.253906 3.890625 -5.078125 C 4.242188 -4.910156 4.515625 -4.6875 4.703125 -4.40625 C 4.878906 -4.144531 4.992188 -3.835938 5.046875 -3.484375 C 5.097656 -3.242188 5.125 -2.859375 5.125 -2.328125 L 1.296875 -2.328125 C 1.304688 -1.796875 1.425781 -1.367188 1.65625 -1.046875 C 1.894531 -0.734375 2.265625 -0.578125 2.765625 -0.578125 C 3.222656 -0.578125 3.585938 -0.726562 3.859375 -1.03125 C 4.015625 -1.207031 4.125 -1.410156 4.1875 -1.640625 L 5.046875 -1.640625 C 5.023438 -1.453125 4.953125 -1.238281 4.828125 -1 C 4.703125 -0.757812 4.554688 -0.566406 4.390625 -0.421875 C 4.128906 -0.160156 3.800781 0.015625 3.40625 0.109375 C 3.195312 0.160156 2.957031 0.1875 2.6875 0.1875 C 2.03125 0.1875 1.476562 -0.046875 1.03125 -0.515625 C 0.582031 -0.992188 0.359375 -1.660156 0.359375 -2.515625 C 0.359375 -3.359375 0.582031 -4.039062 1.03125 -4.5625 C 1.488281 -5.082031 2.085938 -5.34375 2.828125 -5.34375 Z M 4.21875 -3.03125 C 4.1875 -3.414062 4.101562 -3.722656 3.96875 -3.953125 C 3.726562 -4.367188 3.328125 -4.578125 2.765625 -4.578125 C 2.359375 -4.578125 2.019531 -4.429688 1.75 -4.140625 C 1.476562 -3.847656 1.332031 -3.476562 1.3125 -3.03125 Z M 2.734375 -5.359375 Z M 2.734375 -5.359375 "/>
</symbol>
<symbol overflow="visible" id="glyph3-6">
<path style="stroke:none;" d="M 1.109375 -5.15625 L 2.125 -5.15625 L 2.125 -4.09375 L 1.109375 -4.09375 Z M 1.109375 -1.0625 L 2.125 -1.0625 L 2.125 0 L 1.109375 0 Z M 1.109375 -1.0625 "/>
</symbol>
<symbol overflow="visible" id="glyph3-7">
<path style="stroke:none;" d=""/>
</symbol>
<symbol overflow="visible" id="glyph3-8">
<path style="stroke:none;" d="M 0.640625 -5.234375 L 1.515625 -5.234375 L 1.515625 -4.484375 C 1.722656 -4.742188 1.910156 -4.929688 2.078125 -5.046875 C 2.367188 -5.242188 2.695312 -5.34375 3.0625 -5.34375 C 3.476562 -5.34375 3.816406 -5.242188 4.078125 -5.046875 C 4.210938 -4.921875 4.34375 -4.742188 4.46875 -4.515625 C 4.65625 -4.796875 4.878906 -5.003906 5.140625 -5.140625 C 5.410156 -5.273438 5.710938 -5.34375 6.046875 -5.34375 C 6.742188 -5.34375 7.21875 -5.085938 7.46875 -4.578125 C 7.613281 -4.304688 7.6875 -3.941406 7.6875 -3.484375 L 7.6875 0 L 6.765625 0 L 6.765625 -3.640625 C 6.765625 -3.984375 6.675781 -4.21875 6.5 -4.34375 C 6.332031 -4.476562 6.125 -4.546875 5.875 -4.546875 C 5.53125 -4.546875 5.234375 -4.429688 4.984375 -4.203125 C 4.734375 -3.972656 4.609375 -3.585938 4.609375 -3.046875 L 4.609375 0 L 3.71875 0 L 3.71875 -3.40625 C 3.71875 -3.769531 3.671875 -4.03125 3.578125 -4.1875 C 3.453125 -4.4375 3.207031 -4.5625 2.84375 -4.5625 C 2.507812 -4.5625 2.207031 -4.429688 1.9375 -4.171875 C 1.664062 -3.910156 1.53125 -3.445312 1.53125 -2.78125 L 1.53125 0 L 0.640625 0 Z M 0.640625 -5.234375 "/>
</symbol>
<symbol overflow="visible" id="glyph3-9">
<path style="stroke:none;" d="M 1.3125 -1.390625 C 1.3125 -1.140625 1.40625 -0.941406 1.59375 -0.796875 C 1.78125 -0.648438 2 -0.578125 2.25 -0.578125 C 2.5625 -0.578125 2.863281 -0.644531 3.15625 -0.78125 C 3.644531 -1.019531 3.890625 -1.410156 3.890625 -1.953125 L 3.890625 -2.65625 C 3.773438 -2.59375 3.632812 -2.535156 3.46875 -2.484375 C 3.300781 -2.441406 3.132812 -2.410156 2.96875 -2.390625 L 2.4375 -2.328125 C 2.125 -2.285156 1.882812 -2.21875 1.71875 -2.125 C 1.445312 -1.96875 1.3125 -1.722656 1.3125 -1.390625 Z M 3.453125 -3.171875 C 3.648438 -3.191406 3.785156 -3.273438 3.859375 -3.421875 C 3.890625 -3.503906 3.90625 -3.617188 3.90625 -3.765625 C 3.90625 -4.054688 3.796875 -4.269531 3.578125 -4.40625 C 3.367188 -4.539062 3.066406 -4.609375 2.671875 -4.609375 C 2.210938 -4.609375 1.890625 -4.488281 1.703125 -4.25 C 1.585938 -4.101562 1.515625 -3.898438 1.484375 -3.640625 L 0.671875 -3.640625 C 0.679688 -4.273438 0.890625 -4.71875 1.296875 -4.96875 C 1.703125 -5.226562 2.171875 -5.359375 2.703125 -5.359375 C 3.316406 -5.359375 3.8125 -5.238281 4.1875 -5 C 4.570312 -4.769531 4.765625 -4.40625 4.765625 -3.90625 L 4.765625 -0.90625 C 4.765625 -0.8125 4.78125 -0.734375 4.8125 -0.671875 C 4.851562 -0.617188 4.9375 -0.59375 5.0625 -0.59375 C 5.101562 -0.59375 5.144531 -0.59375 5.1875 -0.59375 C 5.238281 -0.601562 5.289062 -0.613281 5.34375 -0.625 L 5.34375 0.03125 C 5.207031 0.0625 5.101562 0.0820312 5.03125 0.09375 C 4.957031 0.101562 4.859375 0.109375 4.734375 0.109375 C 4.429688 0.109375 4.210938 0.00390625 4.078125 -0.203125 C 4.003906 -0.316406 3.957031 -0.476562 3.9375 -0.6875 C 3.75 -0.457031 3.488281 -0.253906 3.15625 -0.078125 C 2.820312 0.0859375 2.453125 0.171875 2.046875 0.171875 C 1.566406 0.171875 1.171875 0.0234375 0.859375 -0.265625 C 0.554688 -0.554688 0.40625 -0.925781 0.40625 -1.375 C 0.40625 -1.851562 0.554688 -2.226562 0.859375 -2.5 C 1.160156 -2.769531 1.554688 -2.9375 2.046875 -3 Z M 2.71875 -5.359375 Z M 2.71875 -5.359375 "/>
</symbol>
<symbol overflow="visible" id="glyph3-10">
<path style="stroke:none;" d="M 2.65625 -5.375 C 3.25 -5.375 3.726562 -5.226562 4.09375 -4.9375 C 4.46875 -4.65625 4.691406 -4.164062 4.765625 -3.46875 L 3.90625 -3.46875 C 3.851562 -3.789062 3.734375 -4.054688 3.546875 -4.265625 C 3.367188 -4.484375 3.070312 -4.59375 2.65625 -4.59375 C 2.101562 -4.59375 1.703125 -4.320312 1.453125 -3.78125 C 1.296875 -3.425781 1.21875 -2.988281 1.21875 -2.46875 C 1.21875 -1.9375 1.328125 -1.488281 1.546875 -1.125 C 1.773438 -0.769531 2.128906 -0.59375 2.609375 -0.59375 C 2.972656 -0.59375 3.257812 -0.703125 3.46875 -0.921875 C 3.6875 -1.148438 3.832031 -1.457031 3.90625 -1.84375 L 4.765625 -1.84375 C 4.671875 -1.15625 4.425781 -0.648438 4.03125 -0.328125 C 3.644531 -0.00390625 3.144531 0.15625 2.53125 0.15625 C 1.851562 0.15625 1.304688 -0.09375 0.890625 -0.59375 C 0.484375 -1.09375 0.28125 -1.71875 0.28125 -2.46875 C 0.28125 -3.382812 0.503906 -4.097656 0.953125 -4.609375 C 1.398438 -5.117188 1.96875 -5.375 2.65625 -5.375 Z M 2.53125 -5.359375 Z M 2.53125 -5.359375 "/>
</symbol>
<symbol overflow="visible" id="glyph3-11">
<path style="stroke:none;" d="M 0.671875 -5.234375 L 1.5 -5.234375 L 1.5 -4.328125 C 1.570312 -4.503906 1.738281 -4.71875 2 -4.96875 C 2.269531 -5.21875 2.582031 -5.34375 2.9375 -5.34375 C 2.945312 -5.34375 2.972656 -5.34375 3.015625 -5.34375 C 3.054688 -5.34375 3.125 -5.335938 3.21875 -5.328125 L 3.21875 -4.390625 C 3.164062 -4.398438 3.113281 -4.40625 3.0625 -4.40625 C 3.019531 -4.414062 2.972656 -4.421875 2.921875 -4.421875 C 2.484375 -4.421875 2.144531 -4.273438 1.90625 -3.984375 C 1.664062 -3.703125 1.546875 -3.378906 1.546875 -3.015625 L 1.546875 0 L 0.671875 0 Z M 0.671875 -5.234375 "/>
</symbol>
<symbol overflow="visible" id="glyph3-12">
<path style="stroke:none;" d="M 2.71875 -0.5625 C 3.300781 -0.5625 3.703125 -0.78125 3.921875 -1.21875 C 4.140625 -1.664062 4.25 -2.160156 4.25 -2.703125 C 4.25 -3.191406 4.171875 -3.585938 4.015625 -3.890625 C 3.765625 -4.367188 3.335938 -4.609375 2.734375 -4.609375 C 2.191406 -4.609375 1.796875 -4.40625 1.546875 -4 C 1.304688 -3.59375 1.1875 -3.097656 1.1875 -2.515625 C 1.1875 -1.960938 1.304688 -1.5 1.546875 -1.125 C 1.796875 -0.75 2.1875 -0.5625 2.71875 -0.5625 Z M 2.75 -5.375 C 3.425781 -5.375 3.992188 -5.148438 4.453125 -4.703125 C 4.921875 -4.253906 5.15625 -3.59375 5.15625 -2.71875 C 5.15625 -1.875 4.953125 -1.175781 4.546875 -0.625 C 4.140625 -0.0820312 3.503906 0.1875 2.640625 0.1875 C 1.921875 0.1875 1.347656 -0.0507812 0.921875 -0.53125 C 0.492188 -1.019531 0.28125 -1.675781 0.28125 -2.5 C 0.28125 -3.375 0.503906 -4.070312 0.953125 -4.59375 C 1.398438 -5.113281 2 -5.375 2.75 -5.375 Z M 2.71875 -5.359375 Z M 2.71875 -5.359375 "/>
</symbol>
<symbol overflow="visible" id="glyph3-13">
<path style="stroke:none;" d="M 0 1.25 L 0 0.75 L 5.5625 0.75 L 5.5625 1.25 Z M 0 1.25 "/>
</symbol>
<symbol overflow="visible" id="glyph3-14">
<path style="stroke:none;" d="M 1.171875 -1.640625 C 1.191406 -1.347656 1.265625 -1.125 1.390625 -0.96875 C 1.609375 -0.6875 1.992188 -0.546875 2.546875 -0.546875 C 2.867188 -0.546875 3.148438 -0.613281 3.390625 -0.75 C 3.640625 -0.894531 3.765625 -1.113281 3.765625 -1.40625 C 3.765625 -1.632812 3.664062 -1.804688 3.46875 -1.921875 C 3.34375 -1.992188 3.09375 -2.078125 2.71875 -2.171875 L 2.015625 -2.34375 C 1.578125 -2.457031 1.25 -2.582031 1.03125 -2.71875 C 0.65625 -2.957031 0.46875 -3.285156 0.46875 -3.703125 C 0.46875 -4.203125 0.644531 -4.601562 1 -4.90625 C 1.351562 -5.207031 1.832031 -5.359375 2.4375 -5.359375 C 3.226562 -5.359375 3.796875 -5.128906 4.140625 -4.671875 C 4.359375 -4.378906 4.46875 -4.0625 4.46875 -3.71875 L 3.640625 -3.71875 C 3.617188 -3.925781 3.546875 -4.109375 3.421875 -4.265625 C 3.222656 -4.492188 2.875 -4.609375 2.375 -4.609375 C 2.039062 -4.609375 1.785156 -4.546875 1.609375 -4.421875 C 1.441406 -4.296875 1.359375 -4.128906 1.359375 -3.921875 C 1.359375 -3.691406 1.472656 -3.507812 1.703125 -3.375 C 1.828125 -3.289062 2.019531 -3.21875 2.28125 -3.15625 L 2.859375 -3.015625 C 3.484375 -2.859375 3.90625 -2.710938 4.125 -2.578125 C 4.46875 -2.347656 4.640625 -1.992188 4.640625 -1.515625 C 4.640625 -1.046875 4.460938 -0.640625 4.109375 -0.296875 C 3.753906 0.0351562 3.21875 0.203125 2.5 0.203125 C 1.71875 0.203125 1.164062 0.0234375 0.84375 -0.328125 C 0.519531 -0.679688 0.347656 -1.117188 0.328125 -1.640625 Z M 2.46875 -5.359375 Z M 2.46875 -5.359375 "/>
</symbol>
<symbol overflow="visible" id="glyph3-15">
<path style="stroke:none;" d="M 0.640625 -5.203125 L 1.53125 -5.203125 L 1.53125 0 L 0.640625 0 Z M 0.640625 -7.171875 L 1.53125 -7.171875 L 1.53125 -6.171875 L 0.640625 -6.171875 Z M 0.640625 -7.171875 "/>
</symbol>
<symbol overflow="visible" id="glyph4-0">
<path style="stroke:none;" d="M 1.046875 -10.078125 L 9.171875 -10.078125 L 9.171875 0 L 1.046875 0 Z M 7.90625 -1.265625 L 7.90625 -8.8125 L 2.3125 -8.8125 L 2.3125 -1.265625 Z M 7.90625 -1.265625 "/>
</symbol>
<symbol overflow="visible" id="glyph4-1">
<path style="stroke:none;" d="M 4.65625 -5.65625 C 3.875 -5.65625 3.347656 -5.398438 3.078125 -4.890625 C 2.921875 -4.597656 2.84375 -4.15625 2.84375 -3.5625 L 2.84375 0 L 0.890625 0 L 0.890625 -7.453125 L 2.75 -7.453125 L 2.75 -6.15625 C 3.050781 -6.644531 3.3125 -6.984375 3.53125 -7.171875 C 3.894531 -7.472656 4.367188 -7.625 4.953125 -7.625 C 4.992188 -7.625 5.023438 -7.625 5.046875 -7.625 C 5.078125 -7.625 5.132812 -7.617188 5.21875 -7.609375 L 5.21875 -5.625 C 5.09375 -5.632812 4.984375 -5.640625 4.890625 -5.640625 C 4.796875 -5.648438 4.71875 -5.65625 4.65625 -5.65625 Z M 4.65625 -5.65625 "/>
</symbol>
<symbol overflow="visible" id="glyph4-2">
<path style="stroke:none;" d="M 7.28125 -2.1875 C 7.238281 -1.75 7.007812 -1.300781 6.59375 -0.84375 C 5.957031 -0.113281 5.066406 0.25 3.921875 0.25 C 2.972656 0.25 2.132812 -0.0546875 1.40625 -0.671875 C 0.6875 -1.285156 0.328125 -2.28125 0.328125 -3.65625 C 0.328125 -4.9375 0.648438 -5.921875 1.296875 -6.609375 C 1.953125 -7.304688 2.800781 -7.65625 3.84375 -7.65625 C 4.46875 -7.65625 5.023438 -7.535156 5.515625 -7.296875 C 6.015625 -7.066406 6.425781 -6.703125 6.75 -6.203125 C 7.039062 -5.753906 7.234375 -5.238281 7.328125 -4.65625 C 7.367188 -4.320312 7.390625 -3.832031 7.390625 -3.1875 L 2.28125 -3.1875 C 2.3125 -2.4375 2.546875 -1.910156 2.984375 -1.609375 C 3.253906 -1.421875 3.578125 -1.328125 3.953125 -1.328125 C 4.359375 -1.328125 4.6875 -1.441406 4.9375 -1.671875 C 5.070312 -1.796875 5.191406 -1.96875 5.296875 -2.1875 Z M 5.359375 -4.46875 C 5.328125 -4.988281 5.171875 -5.378906 4.890625 -5.640625 C 4.609375 -5.910156 4.257812 -6.046875 3.84375 -6.046875 C 3.394531 -6.046875 3.046875 -5.90625 2.796875 -5.625 C 2.546875 -5.34375 2.390625 -4.957031 2.328125 -4.46875 Z M 5.359375 -4.46875 "/>
</symbol>
<symbol overflow="visible" id="glyph4-3">
<path style="stroke:none;" d="M 7.15625 -6.65625 C 7.75 -6.007812 8.046875 -5.066406 8.046875 -3.828125 C 8.046875 -2.515625 7.75 -1.507812 7.15625 -0.8125 C 6.570312 -0.125 5.816406 0.21875 4.890625 0.21875 C 4.296875 0.21875 3.800781 0.0664062 3.40625 -0.234375 C 3.195312 -0.398438 2.988281 -0.640625 2.78125 -0.953125 L 2.78125 2.9375 L 0.859375 2.9375 L 0.859375 -7.453125 L 2.71875 -7.453125 L 2.71875 -6.34375 C 2.925781 -6.675781 3.148438 -6.929688 3.390625 -7.109375 C 3.828125 -7.441406 4.34375 -7.609375 4.9375 -7.609375 C 5.800781 -7.609375 6.539062 -7.289062 7.15625 -6.65625 Z M 6.046875 -3.71875 C 6.046875 -4.300781 5.910156 -4.8125 5.640625 -5.25 C 5.378906 -5.6875 4.957031 -5.90625 4.375 -5.90625 C 3.664062 -5.90625 3.179688 -5.570312 2.921875 -4.90625 C 2.785156 -4.550781 2.71875 -4.101562 2.71875 -3.5625 C 2.71875 -2.6875 2.945312 -2.078125 3.40625 -1.734375 C 3.675781 -1.523438 4 -1.421875 4.375 -1.421875 C 4.914062 -1.421875 5.328125 -1.628906 5.609375 -2.046875 C 5.898438 -2.472656 6.046875 -3.03125 6.046875 -3.71875 Z M 6.046875 -3.71875 "/>
</symbol>
<symbol overflow="visible" id="glyph4-4">
<path style="stroke:none;" d="M 7.125 -6.515625 C 7.75 -5.722656 8.0625 -4.789062 8.0625 -3.71875 C 8.0625 -2.625 7.75 -1.6875 7.125 -0.90625 C 6.5 -0.125 5.546875 0.265625 4.265625 0.265625 C 2.984375 0.265625 2.023438 -0.125 1.390625 -0.90625 C 0.765625 -1.6875 0.453125 -2.625 0.453125 -3.71875 C 0.453125 -4.789062 0.765625 -5.71875 1.390625 -6.5 C 2.023438 -7.289062 2.984375 -7.6875 4.265625 -7.6875 C 5.546875 -7.6875 6.5 -7.296875 7.125 -6.515625 Z M 4.25 -6.046875 C 3.675781 -6.046875 3.234375 -5.84375 2.921875 -5.4375 C 2.617188 -5.03125 2.46875 -4.457031 2.46875 -3.71875 C 2.46875 -2.96875 2.617188 -2.390625 2.921875 -1.984375 C 3.234375 -1.578125 3.675781 -1.375 4.25 -1.375 C 4.820312 -1.375 5.257812 -1.578125 5.5625 -1.984375 C 5.863281 -2.390625 6.015625 -2.96875 6.015625 -3.71875 C 6.015625 -4.457031 5.863281 -5.03125 5.5625 -5.4375 C 5.257812 -5.84375 4.820312 -6.046875 4.25 -6.046875 Z M 4.25 -6.046875 "/>
</symbol>
<symbol overflow="visible" id="glyph4-5">
<path style="stroke:none;" d="M 4.328125 -1.390625 L 4.328125 0.0625 L 3.390625 0.109375 C 2.472656 0.140625 1.847656 -0.0195312 1.515625 -0.375 C 1.296875 -0.601562 1.1875 -0.945312 1.1875 -1.40625 L 1.1875 -6 L 0.140625 -6 L 0.140625 -7.390625 L 1.1875 -7.390625 L 1.1875 -9.46875 L 3.109375 -9.46875 L 3.109375 -7.390625 L 4.328125 -7.390625 L 4.328125 -6 L 3.109375 -6 L 3.109375 -2.0625 C 3.109375 -1.75 3.144531 -1.554688 3.21875 -1.484375 C 3.300781 -1.410156 3.539062 -1.375 3.9375 -1.375 C 4 -1.375 4.0625 -1.375 4.125 -1.375 C 4.1875 -1.375 4.253906 -1.378906 4.328125 -1.390625 Z M 4.328125 -1.390625 "/>
</symbol>
<symbol overflow="visible" id="glyph5-0">
<path style="stroke:none;" d="M 0.265625 0 L 0.265625 -5.734375 L 4.8125 -5.734375 L 4.8125 0 Z M 4.09375 -0.71875 L 4.09375 -5.015625 L 0.984375 -5.015625 L 0.984375 -0.71875 Z M 4.09375 -0.71875 "/>
</symbol>
<symbol overflow="visible" id="glyph5-1">
<path style="stroke:none;" d="M 3.03125 -5.890625 C 3.757812 -5.890625 4.320312 -5.695312 4.71875 -5.3125 C 5.125 -4.9375 5.347656 -4.503906 5.390625 -4.015625 L 4.625 -4.015625 C 4.539062 -4.390625 4.367188 -4.679688 4.109375 -4.890625 C 3.859375 -5.109375 3.5 -5.21875 3.03125 -5.21875 C 2.46875 -5.21875 2.007812 -5.019531 1.65625 -4.625 C 1.3125 -4.226562 1.140625 -3.617188 1.140625 -2.796875 C 1.140625 -2.128906 1.296875 -1.582031 1.609375 -1.15625 C 1.929688 -0.738281 2.398438 -0.53125 3.015625 -0.53125 C 3.585938 -0.53125 4.023438 -0.753906 4.328125 -1.203125 C 4.484375 -1.429688 4.601562 -1.734375 4.6875 -2.109375 L 5.4375 -2.109375 C 5.375 -1.503906 5.148438 -1 4.765625 -0.59375 C 4.316406 -0.09375 3.703125 0.15625 2.921875 0.15625 C 2.253906 0.15625 1.695312 -0.046875 1.25 -0.453125 C 0.65625 -0.992188 0.359375 -1.820312 0.359375 -2.9375 C 0.359375 -3.78125 0.582031 -4.472656 1.03125 -5.015625 C 1.507812 -5.597656 2.175781 -5.890625 3.03125 -5.890625 Z M 2.875 -5.890625 Z M 2.875 -5.890625 "/>
</symbol>
<symbol overflow="visible" id="glyph5-2">
<path style="stroke:none;" d="M 2.171875 -0.453125 C 2.640625 -0.453125 2.957031 -0.628906 3.125 -0.984375 C 3.300781 -1.335938 3.390625 -1.726562 3.390625 -2.15625 C 3.390625 -2.550781 3.328125 -2.867188 3.203125 -3.109375 C 3.003906 -3.492188 2.664062 -3.6875 2.1875 -3.6875 C 1.757812 -3.6875 1.445312 -3.519531 1.25 -3.1875 C 1.050781 -2.863281 0.953125 -2.472656 0.953125 -2.015625 C 0.953125 -1.566406 1.050781 -1.191406 1.25 -0.890625 C 1.445312 -0.597656 1.753906 -0.453125 2.171875 -0.453125 Z M 2.203125 -4.3125 C 2.742188 -4.3125 3.195312 -4.128906 3.5625 -3.765625 C 3.9375 -3.410156 4.125 -2.882812 4.125 -2.1875 C 4.125 -1.507812 3.957031 -0.945312 3.625 -0.5 C 3.300781 -0.0625 2.796875 0.15625 2.109375 0.15625 C 1.535156 0.15625 1.078125 -0.0351562 0.734375 -0.421875 C 0.398438 -0.816406 0.234375 -1.34375 0.234375 -2 C 0.234375 -2.707031 0.410156 -3.269531 0.765625 -3.6875 C 1.117188 -4.101562 1.597656 -4.3125 2.203125 -4.3125 Z M 2.1875 -4.28125 Z M 2.1875 -4.28125 "/>
</symbol>
<symbol overflow="visible" id="glyph5-3">
<path style="stroke:none;" d="M 0.515625 -4.1875 L 1.21875 -4.1875 L 1.21875 -3.59375 C 1.382812 -3.800781 1.535156 -3.953125 1.671875 -4.046875 C 1.898438 -4.203125 2.160156 -4.28125 2.453125 -4.28125 C 2.785156 -4.28125 3.054688 -4.195312 3.265625 -4.03125 C 3.378906 -3.9375 3.484375 -3.800781 3.578125 -3.625 C 3.734375 -3.84375 3.914062 -4.003906 4.125 -4.109375 C 4.332031 -4.222656 4.566406 -4.28125 4.828125 -4.28125 C 5.390625 -4.28125 5.773438 -4.078125 5.984375 -3.671875 C 6.085938 -3.453125 6.140625 -3.15625 6.140625 -2.78125 L 6.140625 0 L 5.421875 0 L 5.421875 -2.90625 C 5.421875 -3.1875 5.347656 -3.378906 5.203125 -3.484375 C 5.066406 -3.585938 4.898438 -3.640625 4.703125 -3.640625 C 4.421875 -3.640625 4.179688 -3.546875 3.984375 -3.359375 C 3.785156 -3.171875 3.6875 -2.863281 3.6875 -2.4375 L 3.6875 0 L 2.96875 0 L 2.96875 -2.734375 C 2.96875 -3.015625 2.9375 -3.222656 2.875 -3.359375 C 2.757812 -3.546875 2.554688 -3.640625 2.265625 -3.640625 C 2.003906 -3.640625 1.765625 -3.535156 1.546875 -3.328125 C 1.328125 -3.128906 1.21875 -2.757812 1.21875 -2.21875 L 1.21875 0 L 0.515625 0 Z M 0.515625 -4.1875 "/>
</symbol>
<symbol overflow="visible" id="glyph5-4">
<path style="stroke:none;" d="M 2.28125 -0.46875 C 2.613281 -0.46875 2.882812 -0.601562 3.09375 -0.875 C 3.3125 -1.15625 3.421875 -1.570312 3.421875 -2.125 C 3.421875 -2.457031 3.375 -2.742188 3.28125 -2.984375 C 3.101562 -3.441406 2.769531 -3.671875 2.28125 -3.671875 C 1.789062 -3.671875 1.457031 -3.425781 1.28125 -2.9375 C 1.1875 -2.675781 1.140625 -2.347656 1.140625 -1.953125 C 1.140625 -1.628906 1.1875 -1.351562 1.28125 -1.125 C 1.46875 -0.6875 1.800781 -0.46875 2.28125 -0.46875 Z M 0.46875 -4.171875 L 1.140625 -4.171875 L 1.140625 -3.609375 C 1.285156 -3.796875 1.441406 -3.941406 1.609375 -4.046875 C 1.847656 -4.203125 2.125 -4.28125 2.4375 -4.28125 C 2.914062 -4.28125 3.316406 -4.097656 3.640625 -3.734375 C 3.972656 -3.378906 4.140625 -2.863281 4.140625 -2.1875 C 4.140625 -1.269531 3.90625 -0.617188 3.4375 -0.234375 C 3.132812 0.015625 2.78125 0.140625 2.375 0.140625 C 2.0625 0.140625 1.796875 0.0703125 1.578125 -0.0625 C 1.453125 -0.144531 1.316406 -0.28125 1.171875 -0.46875 L 1.171875 1.671875 L 0.46875 1.671875 Z M 0.46875 -4.171875 "/>
</symbol>
<symbol overflow="visible" id="glyph5-5">
<path style="stroke:none;" d="M 0.515625 -4.171875 L 1.234375 -4.171875 L 1.234375 0 L 0.515625 0 Z M 0.515625 -5.734375 L 1.234375 -5.734375 L 1.234375 -4.9375 L 0.515625 -4.9375 Z M 0.515625 -5.734375 "/>
</symbol>
<symbol overflow="visible" id="glyph5-6">
<path style="stroke:none;" d="M 0.53125 -5.734375 L 1.234375 -5.734375 L 1.234375 0 L 0.53125 0 Z M 0.53125 -5.734375 "/>
</symbol>
<symbol overflow="visible" id="glyph5-7">
<path style="stroke:none;" d="M 2.265625 -4.28125 C 2.554688 -4.28125 2.84375 -4.207031 3.125 -4.0625 C 3.40625 -3.925781 3.617188 -3.75 3.765625 -3.53125 C 3.898438 -3.320312 3.992188 -3.078125 4.046875 -2.796875 C 4.085938 -2.597656 4.109375 -2.289062 4.109375 -1.875 L 1.03125 -1.875 C 1.050781 -1.445312 1.15625 -1.101562 1.34375 -0.84375 C 1.53125 -0.59375 1.816406 -0.46875 2.203125 -0.46875 C 2.578125 -0.46875 2.875 -0.585938 3.09375 -0.828125 C 3.21875 -0.960938 3.304688 -1.125 3.359375 -1.3125 L 4.046875 -1.3125 C 4.023438 -1.15625 3.960938 -0.984375 3.859375 -0.796875 C 3.753906 -0.609375 3.640625 -0.457031 3.515625 -0.34375 C 3.304688 -0.132812 3.039062 0.0078125 2.71875 0.09375 C 2.550781 0.132812 2.363281 0.15625 2.15625 0.15625 C 1.632812 0.15625 1.191406 -0.03125 0.828125 -0.40625 C 0.460938 -0.789062 0.28125 -1.328125 0.28125 -2.015625 C 0.28125 -2.679688 0.460938 -3.222656 0.828125 -3.640625 C 1.191406 -4.066406 1.671875 -4.28125 2.265625 -4.28125 Z M 3.375 -2.421875 C 3.351562 -2.734375 3.289062 -2.976562 3.1875 -3.15625 C 2.988281 -3.5 2.664062 -3.671875 2.21875 -3.671875 C 1.894531 -3.671875 1.625 -3.550781 1.40625 -3.3125 C 1.1875 -3.082031 1.070312 -2.785156 1.0625 -2.421875 Z M 2.1875 -4.28125 Z M 2.1875 -4.28125 "/>
</symbol>
<symbol overflow="visible" id="glyph5-8">
<path style="stroke:none;" d="M 0.96875 -2.046875 C 0.96875 -1.597656 1.0625 -1.222656 1.25 -0.921875 C 1.4375 -0.617188 1.738281 -0.46875 2.15625 -0.46875 C 2.488281 -0.46875 2.757812 -0.609375 2.96875 -0.890625 C 3.175781 -1.171875 3.28125 -1.570312 3.28125 -2.09375 C 3.28125 -2.625 3.171875 -3.015625 2.953125 -3.265625 C 2.734375 -3.515625 2.46875 -3.640625 2.15625 -3.640625 C 1.800781 -3.640625 1.515625 -3.503906 1.296875 -3.234375 C 1.078125 -2.960938 0.96875 -2.566406 0.96875 -2.046875 Z M 2.015625 -4.265625 C 2.335938 -4.265625 2.609375 -4.195312 2.828125 -4.0625 C 2.953125 -3.976562 3.09375 -3.835938 3.25 -3.640625 L 3.25 -5.765625 L 3.921875 -5.765625 L 3.921875 0 L 3.296875 0 L 3.296875 -0.578125 C 3.128906 -0.328125 2.929688 -0.140625 2.703125 -0.015625 C 2.484375 0.0976562 2.226562 0.15625 1.9375 0.15625 C 1.476562 0.15625 1.078125 -0.0390625 0.734375 -0.4375 C 0.390625 -0.832031 0.21875 -1.351562 0.21875 -2 C 0.21875 -2.613281 0.375 -3.144531 0.6875 -3.59375 C 1 -4.039062 1.441406 -4.265625 2.015625 -4.265625 Z M 2.015625 -4.265625 "/>
</symbol>
<symbol overflow="visible" id="glyph5-9">
<path style="stroke:none;" d=""/>
</symbol>
<symbol overflow="visible" id="glyph5-10">
<path style="stroke:none;" d="M 0.46875 -5.765625 L 1.140625 -5.765625 L 1.140625 -3.671875 C 1.296875 -3.878906 1.476562 -4.035156 1.6875 -4.140625 C 1.90625 -4.242188 2.140625 -4.296875 2.390625 -4.296875 C 2.910156 -4.296875 3.332031 -4.113281 3.65625 -3.75 C 3.976562 -3.394531 4.140625 -2.867188 4.140625 -2.171875 C 4.140625 -1.515625 3.976562 -0.960938 3.65625 -0.515625 C 3.34375 -0.078125 2.898438 0.140625 2.328125 0.140625 C 2.015625 0.140625 1.75 0.0625 1.53125 -0.09375 C 1.394531 -0.1875 1.253906 -0.332031 1.109375 -0.53125 L 1.109375 0 L 0.46875 0 Z M 2.296875 -0.484375 C 2.671875 -0.484375 2.953125 -0.632812 3.140625 -0.9375 C 3.328125 -1.238281 3.421875 -1.640625 3.421875 -2.140625 C 3.421875 -2.578125 3.328125 -2.941406 3.140625 -3.234375 C 2.953125 -3.523438 2.675781 -3.671875 2.3125 -3.671875 C 1.988281 -3.671875 1.707031 -3.550781 1.46875 -3.3125 C 1.226562 -3.070312 1.109375 -2.679688 1.109375 -2.140625 C 1.109375 -1.742188 1.15625 -1.425781 1.25 -1.1875 C 1.4375 -0.71875 1.785156 -0.484375 2.296875 -0.484375 Z M 2.296875 -0.484375 "/>
</symbol>
<symbol overflow="visible" id="glyph5-11">
<path style="stroke:none;" d="M 3.125 -4.1875 L 3.90625 -4.1875 C 3.8125 -3.914062 3.59375 -3.300781 3.25 -2.34375 C 2.988281 -1.625 2.773438 -1.039062 2.609375 -0.59375 C 2.203125 0.476562 1.914062 1.128906 1.75 1.359375 C 1.582031 1.597656 1.296875 1.71875 0.890625 1.71875 C 0.785156 1.71875 0.707031 1.710938 0.65625 1.703125 C 0.601562 1.691406 0.539062 1.675781 0.46875 1.65625 L 0.46875 1.015625 C 0.582031 1.054688 0.664062 1.078125 0.71875 1.078125 C 0.78125 1.085938 0.832031 1.09375 0.875 1.09375 C 1 1.09375 1.09375 1.070312 1.15625 1.03125 C 1.21875 0.988281 1.269531 0.9375 1.3125 0.875 C 1.320312 0.851562 1.367188 0.742188 1.453125 0.546875 C 1.535156 0.359375 1.59375 0.21875 1.625 0.125 L 0.078125 -4.1875 L 0.875 -4.1875 L 2 -0.78125 Z M 2 -4.28125 Z M 2 -4.28125 "/>
</symbol>
<symbol overflow="visible" id="glyph5-12">
<path style="stroke:none;" d="M 0.890625 -4.125 L 1.703125 -4.125 L 1.703125 -3.28125 L 0.890625 -3.28125 Z M 0.890625 -0.859375 L 1.703125 -0.859375 L 1.703125 0 L 0.890625 0 Z M 0.890625 -0.859375 "/>
</symbol>
<symbol overflow="visible" id="glyph5-13">
<path style="stroke:none;" d="M 3.09375 -5.890625 C 4.101562 -5.890625 4.851562 -5.566406 5.34375 -4.921875 C 5.71875 -4.410156 5.90625 -3.757812 5.90625 -2.96875 C 5.90625 -2.113281 5.6875 -1.398438 5.25 -0.828125 C 4.738281 -0.160156 4.015625 0.171875 3.078125 0.171875 C 2.191406 0.171875 1.492188 -0.117188 0.984375 -0.703125 C 0.535156 -1.265625 0.3125 -1.976562 0.3125 -2.84375 C 0.3125 -3.613281 0.503906 -4.273438 0.890625 -4.828125 C 1.390625 -5.535156 2.125 -5.890625 3.09375 -5.890625 Z M 3.171875 -0.53125 C 3.847656 -0.53125 4.335938 -0.773438 4.640625 -1.265625 C 4.953125 -1.753906 5.109375 -2.316406 5.109375 -2.953125 C 5.109375 -3.628906 4.929688 -4.171875 4.578125 -4.578125 C 4.222656 -4.992188 3.742188 -5.203125 3.140625 -5.203125 C 2.546875 -5.203125 2.0625 -5 1.6875 -4.59375 C 1.3125 -4.1875 1.125 -3.585938 1.125 -2.796875 C 1.125 -2.160156 1.28125 -1.625 1.59375 -1.1875 C 1.914062 -0.75 2.441406 -0.53125 3.171875 -0.53125 Z M 3.109375 -5.890625 Z M 3.109375 -5.890625 "/>
</symbol>
<symbol overflow="visible" id="glyph5-14">
<path style="stroke:none;" d="M 0.859375 -4.1875 L 1.984375 -0.78125 L 3.140625 -4.1875 L 3.921875 -4.1875 L 2.34375 0 L 1.59375 0 L 0.046875 -4.1875 Z M 0.859375 -4.1875 "/>
</symbol>
<symbol overflow="visible" id="glyph5-15">
<path style="stroke:none;" d="M 0.53125 -4.1875 L 1.203125 -4.1875 L 1.203125 -3.46875 C 1.253906 -3.601562 1.382812 -3.769531 1.59375 -3.96875 C 1.8125 -4.175781 2.0625 -4.28125 2.34375 -4.28125 C 2.351562 -4.28125 2.375 -4.273438 2.40625 -4.265625 C 2.4375 -4.265625 2.492188 -4.265625 2.578125 -4.265625 L 2.578125 -3.515625 C 2.535156 -3.523438 2.492188 -3.53125 2.453125 -3.53125 C 2.421875 -3.53125 2.382812 -3.53125 2.34375 -3.53125 C 1.988281 -3.53125 1.710938 -3.414062 1.515625 -3.1875 C 1.328125 -2.96875 1.234375 -2.707031 1.234375 -2.40625 L 1.234375 0 L 0.53125 0 Z M 0.53125 -4.1875 "/>
</symbol>
<symbol overflow="visible" id="glyph5-16">
<path style="stroke:none;" d="M 0.1875 -0.640625 L 3.703125 -5.0625 L 0.4375 -5.0625 L 0.4375 -5.734375 L 4.703125 -5.734375 L 4.703125 -5.078125 L 1.171875 -0.6875 L 4.703125 -0.6875 L 4.703125 0 L 0.1875 0 Z M 2.578125 -5.734375 Z M 2.578125 -5.734375 "/>
</symbol>
<symbol overflow="visible" id="glyph5-17">
<path style="stroke:none;" d="M 0.515625 -5.765625 L 1.21875 -5.765625 L 1.21875 -3.625 C 1.382812 -3.832031 1.535156 -3.976562 1.671875 -4.0625 C 1.898438 -4.207031 2.179688 -4.28125 2.515625 -4.28125 C 3.117188 -4.28125 3.53125 -4.070312 3.75 -3.65625 C 3.863281 -3.414062 3.921875 -3.09375 3.921875 -2.6875 L 3.921875 0 L 3.203125 0 L 3.203125 -2.640625 C 3.203125 -2.941406 3.164062 -3.164062 3.09375 -3.3125 C 2.957031 -3.539062 2.71875 -3.65625 2.375 -3.65625 C 2.082031 -3.65625 1.816406 -3.554688 1.578125 -3.359375 C 1.335938 -3.160156 1.21875 -2.78125 1.21875 -2.21875 L 1.21875 0 L 0.515625 0 Z M 0.515625 -5.765625 "/>
</symbol>
<symbol overflow="visible" id="glyph5-18">
<path style="stroke:none;" d="M 1.21875 -4.1875 L 1.21875 -1.40625 C 1.21875 -1.195312 1.253906 -1.023438 1.328125 -0.890625 C 1.453125 -0.640625 1.679688 -0.515625 2.015625 -0.515625 C 2.503906 -0.515625 2.835938 -0.734375 3.015625 -1.171875 C 3.117188 -1.398438 3.171875 -1.71875 3.171875 -2.125 L 3.171875 -4.1875 L 3.875 -4.1875 L 3.875 0 L 3.203125 0 L 3.21875 -0.625 C 3.125 -0.457031 3.007812 -0.320312 2.875 -0.21875 C 2.601562 0 2.273438 0.109375 1.890625 0.109375 C 1.296875 0.109375 0.890625 -0.0859375 0.671875 -0.484375 C 0.554688 -0.703125 0.5 -0.988281 0.5 -1.34375 L 0.5 -4.1875 Z M 2.1875 -4.28125 Z M 2.1875 -4.28125 "/>
</symbol>
</g>
<clipPath id="clip1">
  <path d="M 36.542969 40.492188 L 558.070312 40.492188 L 558.070312 275.339844 L 36.542969 275.339844 Z M 36.542969 40.492188 "/>
</clipPath>
<clipPath id="clip2">
  <path d="M 36.542969 271 L 558.070312 271 L 558.070312 273 L 36.542969 273 Z M 36.542969 271 "/>
</clipPath>
<clipPath id="clip3">
  <path d="M 36.542969 214 L 558.070312 214 L 558.070312 216 L 36.542969 216 Z M 36.542969 214 "/>
</clipPath>
<clipPath id="clip4">
  <path d="M 36.542969 157 L 558.070312 157 L 558.070312 159 L 36.542969 159 Z M 36.542969 157 "/>
</clipPath>
<clipPath id="clip5">
  <path d="M 36.542969 100 L 558.070312 100 L 558.070312 102 L 36.542969 102 Z M 36.542969 100 "/>
</clipPath>
<clipPath id="clip6">
  <path d="M 36.542969 43 L 558.070312 43 L 558.070312 45 L 36.542969 45 Z M 36.542969 43 "/>
</clipPath>
<clipPath id="clip7">
  <path d="M 59 40.492188 L 61 40.492188 L 61 275.339844 L 59 275.339844 Z M 59 40.492188 "/>
</clipPath>
<clipPath id="clip8">
  <path d="M 248 40.492188 L 250 40.492188 L 250 275.339844 L 248 275.339844 Z M 248 40.492188 "/>
</clipPath>
<clipPath id="clip9">
  <path d="M 440 40.492188 L 441 40.492188 L 441 275.339844 L 440 275.339844 Z M 440 40.492188 "/>
</clipPath>
</defs>
<g id="surface61">
<rect x="0" y="0" width="576" height="360" style="fill:rgb(100%,100%,100%);fill-opacity:1;stroke:none;"/>
<rect x="0" y="0" width="576" height="360" style="fill:rgb(96.470588%,94.509804%,90.588235%);fill-opacity:1;stroke:none;"/>
<g clip-path="url(#clip1)" clip-rule="nonzero">
<path style=" stroke:none;fill-rule:nonzero;fill:rgb(96.470588%,94.509804%,90.588235%);fill-opacity:1;" d="M 36.542969 275.339844 L 558.070312 275.339844 L 558.070312 40.492188 L 36.542969 40.492188 Z M 36.542969 275.339844 "/>
</g>
<g clip-path="url(#clip2)" clip-rule="nonzero">
<path style="fill:none;stroke-width:0.746885;stroke-linecap:butt;stroke-linejoin:round;stroke:rgb(83.921569%,80%,73.72549%);stroke-opacity:1;stroke-miterlimit:10;" d="M 36.542969 271.78125 L 558.066406 271.78125 "/>
</g>
<g clip-path="url(#clip3)" clip-rule="nonzero">
<path style="fill:none;stroke-width:0.746885;stroke-linecap:butt;stroke-linejoin:round;stroke:rgb(83.921569%,80%,73.72549%);stroke-opacity:1;stroke-miterlimit:10;" d="M 36.542969 214.847656 L 558.066406 214.847656 "/>
</g>
<g clip-path="url(#clip4)" clip-rule="nonzero">
<path style="fill:none;stroke-width:0.746885;stroke-linecap:butt;stroke-linejoin:round;stroke:rgb(83.921569%,80%,73.72549%);stroke-opacity:1;stroke-miterlimit:10;" d="M 36.542969 157.914062 L 558.066406 157.914062 "/>
</g>
<g clip-path="url(#clip5)" clip-rule="nonzero">
<path style="fill:none;stroke-width:0.746885;stroke-linecap:butt;stroke-linejoin:round;stroke:rgb(83.921569%,80%,73.72549%);stroke-opacity:1;stroke-miterlimit:10;" d="M 36.542969 100.980469 L 558.066406 100.980469 "/>
</g>
<g clip-path="url(#clip6)" clip-rule="nonzero">
<path style="fill:none;stroke-width:0.746885;stroke-linecap:butt;stroke-linejoin:round;stroke:rgb(83.921569%,80%,73.72549%);stroke-opacity:1;stroke-miterlimit:10;" d="M 36.542969 44.046875 L 558.066406 44.046875 "/>
</g>
<g clip-path="url(#clip7)" clip-rule="nonzero">
<path style="fill:none;stroke-width:0.746885;stroke-linecap:butt;stroke-linejoin:round;stroke:rgb(83.921569%,80%,73.72549%);stroke-opacity:1;stroke-miterlimit:10;" d="M 60.246094 275.339844 L 60.246094 40.492188 "/>
</g>
<g clip-path="url(#clip8)" clip-rule="nonzero">
<path style="fill:none;stroke-width:0.746885;stroke-linecap:butt;stroke-linejoin:round;stroke:rgb(83.921569%,80%,73.72549%);stroke-opacity:1;stroke-miterlimit:10;" d="M 248.851562 275.339844 L 248.851562 40.492188 "/>
</g>
<g clip-path="url(#clip9)" clip-rule="nonzero">
<path style="fill:none;stroke-width:0.746885;stroke-linecap:butt;stroke-linejoin:round;stroke:rgb(83.921569%,80%,73.72549%);stroke-opacity:1;stroke-miterlimit:10;" d="M 440.582031 275.339844 L 440.582031 40.492188 "/>
</g>
<path style="fill:none;stroke-width:2.133957;stroke-linecap:butt;stroke-linejoin:round;stroke:rgb(66.666667%,22.745098%,16.470588%);stroke-opacity:1;stroke-miterlimit:10;" d="M 60.246094 51.164062 L 92.550781 51.164062 L 121.726562 86.75 L 154.027344 86.75 L 185.289062 122.332031 L 248.851562 122.332031 L 281.152344 157.914062 L 313.457031 157.914062 L 344.714844 193.496094 L 377.019531 193.496094 L 408.277344 229.082031 L 472.882812 229.082031 L 502.058594 264.664062 L 534.363281 264.664062 "/>
<path style="fill:none;stroke-width:2.133957;stroke-linecap:butt;stroke-linejoin:round;stroke:rgb(12.941176%,30.588235%,38.823529%);stroke-opacity:1;stroke-miterlimit:10;" d="M 60.246094 100.980469 L 92.550781 108.097656 L 121.726562 129.449219 L 154.027344 143.679688 L 185.289062 150.796875 L 217.589844 165.03125 L 248.851562 172.148438 L 281.152344 179.265625 L 313.457031 186.382812 L 344.714844 200.613281 L 377.019531 207.730469 L 408.277344 214.847656 L 440.582031 221.964844 L 472.882812 229.082031 L 502.058594 236.199219 L 534.363281 243.3125 "/>
<path style="fill:none;stroke-width:2.133957;stroke-linecap:butt;stroke-linejoin:round;stroke:rgb(41.960784%,55.686275%,13.72549%);stroke-opacity:1;stroke-miterlimit:10;" d="M 60.246094 122.332031 L 92.550781 115.214844 L 121.726562 136.566406 L 154.027344 150.796875 L 185.289062 157.914062 L 217.589844 165.03125 L 248.851562 172.148438 L 281.152344 174.996094 L 313.457031 183.535156 L 344.714844 189.226562 L 377.019531 194.921875 L 408.277344 200.613281 L 440.582031 203.460938 L 472.882812 207.730469 L 502.058594 210.578125 L 534.363281 214.847656 "/>
<g style="fill:rgb(15.294118%,13.72549%,12.156863%);fill-opacity:1;">
  <use xlink:href="#glyph0-1" x="19.097656" y="275.007812"/>
  <use xlink:href="#glyph0-2" x="24.103027" y="275.007812"/>
  <use xlink:href="#glyph0-3" x="26.603516" y="275.007812"/>
</g>
<g style="fill:rgb(15.294118%,13.72549%,12.156863%);fill-opacity:1;">
  <use xlink:href="#glyph0-1" x="19.097656" y="218.074219"/>
  <use xlink:href="#glyph0-2" x="24.103027" y="218.074219"/>
  <use xlink:href="#glyph0-4" x="26.603516" y="218.074219"/>
</g>
<g style="fill:rgb(15.294118%,13.72549%,12.156863%);fill-opacity:1;">
  <use xlink:href="#glyph0-5" x="19.097656" y="161.140625"/>
  <use xlink:href="#glyph0-2" x="24.103027" y="161.140625"/>
  <use xlink:href="#glyph0-6" x="26.603516" y="161.140625"/>
</g>
<g style="fill:rgb(15.294118%,13.72549%,12.156863%);fill-opacity:1;">
  <use xlink:href="#glyph0-5" x="19.097656" y="104.210938"/>
  <use xlink:href="#glyph0-2" x="24.103027" y="104.210938"/>
  <use xlink:href="#glyph0-5" x="26.603516" y="104.210938"/>
</g>
<g style="fill:rgb(15.294118%,13.72549%,12.156863%);fill-opacity:1;">
  <use xlink:href="#glyph0-5" x="19.097656" y="47.277344"/>
  <use xlink:href="#glyph0-2" x="24.103027" y="47.277344"/>
  <use xlink:href="#glyph0-7" x="26.603516" y="47.277344"/>
</g>
<g style="fill:rgb(15.294118%,13.72549%,12.156863%);fill-opacity:1;">
  <use xlink:href="#glyph0-3" x="43.730469" y="286.726562"/>
  <use xlink:href="#glyph0-6" x="48.73584" y="286.726562"/>
  <use xlink:href="#glyph0-3" x="53.741211" y="286.726562"/>
  <use xlink:href="#glyph0-8" x="58.746582" y="286.726562"/>
  <use xlink:href="#glyph0-9" x="63.751953" y="286.726562"/>
  <use xlink:href="#glyph0-6" x="66.749023" y="286.726562"/>
  <use xlink:href="#glyph0-10" x="71.754395" y="286.726562"/>
</g>
<g style="fill:rgb(15.294118%,13.72549%,12.156863%);fill-opacity:1;">
  <use xlink:href="#glyph0-3" x="232.335938" y="286.726562"/>
  <use xlink:href="#glyph0-6" x="237.341309" y="286.726562"/>
  <use xlink:href="#glyph0-3" x="242.34668" y="286.726562"/>
  <use xlink:href="#glyph0-8" x="247.352051" y="286.726562"/>
  <use xlink:href="#glyph0-9" x="252.357422" y="286.726562"/>
  <use xlink:href="#glyph0-6" x="255.354492" y="286.726562"/>
  <use xlink:href="#glyph0-11" x="260.359863" y="286.726562"/>
</g>
<g style="fill:rgb(15.294118%,13.72549%,12.156863%);fill-opacity:1;">
  <use xlink:href="#glyph0-3" x="424.066406" y="286.726562"/>
  <use xlink:href="#glyph0-6" x="429.071777" y="286.726562"/>
  <use xlink:href="#glyph0-3" x="434.077148" y="286.726562"/>
  <use xlink:href="#glyph0-4" x="439.08252" y="286.726562"/>
  <use xlink:href="#glyph0-9" x="444.087891" y="286.726562"/>
  <use xlink:href="#glyph0-6" x="447.084961" y="286.726562"/>
  <use xlink:href="#glyph0-10" x="452.090332" y="286.726562"/>
</g>
<g style="fill:rgb(15.294118%,13.72549%,12.156863%);fill-opacity:1;">
  <use xlink:href="#glyph1-1" x="14.148438" y="175.144531"/>
  <use xlink:href="#glyph1-2" x="14.148438" y="168.474609"/>
  <use xlink:href="#glyph1-3" x="14.148438" y="162.913086"/>
  <use xlink:href="#glyph1-4" x="14.148438" y="159.583008"/>
  <use xlink:href="#glyph1-2" x="14.148438" y="154.583008"/>
  <use xlink:href="#glyph1-5" x="14.148438" y="149.021484"/>
  <use xlink:href="#glyph1-6" x="14.148438" y="143.459961"/>
</g>
<path style="fill:none;stroke-width:2.133957;stroke-linecap:butt;stroke-linejoin:round;stroke:rgb(66.666667%,22.745098%,16.470588%);stroke-opacity:1;stroke-miterlimit:10;" d="M 205.078125 325.917969 L 218.902344 325.917969 "/>
<path style="fill:none;stroke-width:2.133957;stroke-linecap:butt;stroke-linejoin:round;stroke:rgb(12.941176%,30.588235%,38.823529%);stroke-opacity:1;stroke-miterlimit:10;" d="M 274.421875 325.917969 L 288.246094 325.917969 "/>
<path style="fill:none;stroke-width:2.133957;stroke-linecap:butt;stroke-linejoin:round;stroke:rgb(41.960784%,55.686275%,13.72549%);stroke-opacity:1;stroke-miterlimit:10;" d="M 337.148438 325.917969 L 350.972656 325.917969 "/>
<g style="fill:rgb(15.294118%,13.72549%,12.156863%);fill-opacity:1;">
  <use xlink:href="#glyph2-1" x="226.109375" y="328.96875"/>
  <use xlink:href="#glyph2-2" x="230.83667" y="328.96875"/>
  <use xlink:href="#glyph2-3" x="235.563965" y="328.96875"/>
  <use xlink:href="#glyph2-4" x="237.452393" y="328.96875"/>
  <use xlink:href="#glyph2-5" x="239.34082" y="328.96875"/>
  <use xlink:href="#glyph2-6" x="243.59082" y="328.96875"/>
  <use xlink:href="#glyph2-7" x="247.84082" y="328.96875"/>
  <use xlink:href="#glyph2-8" x="252.568115" y="328.96875"/>
  <use xlink:href="#glyph2-9" x="255.398682" y="328.96875"/>
  <use xlink:href="#glyph2-10" x="260.125977" y="328.96875"/>
  <use xlink:href="#glyph2-11" x="262.487549" y="328.96875"/>
</g>
<g style="fill:rgb(15.294118%,13.72549%,12.156863%);fill-opacity:1;">
  <use xlink:href="#glyph2-10" x="295.453125" y="328.96875"/>
  <use xlink:href="#glyph2-12" x="297.814697" y="328.96875"/>
  <use xlink:href="#glyph2-2" x="303.953125" y="328.96875"/>
  <use xlink:href="#glyph2-7" x="308.68042" y="328.96875"/>
  <use xlink:href="#glyph2-6" x="313.407715" y="328.96875"/>
  <use xlink:href="#glyph2-11" x="317.657715" y="328.96875"/>
  <use xlink:href="#glyph2-9" x="322.38501" y="328.96875"/>
  <use xlink:href="#glyph2-8" x="327.112305" y="328.96875"/>
</g>
<g style="fill:rgb(15.294118%,13.72549%,12.156863%);fill-opacity:1;">
  <use xlink:href="#glyph2-10" x="358.179688" y="328.96875"/>
  <use xlink:href="#glyph2-11" x="360.54126" y="328.96875"/>
  <use xlink:href="#glyph2-13" x="365.268555" y="328.96875"/>
  <use xlink:href="#glyph2-7" x="369.99585" y="328.96875"/>
  <use xlink:href="#glyph2-6" x="374.723145" y="328.96875"/>
  <use xlink:href="#glyph2-11" x="378.973145" y="328.96875"/>
  <use xlink:href="#glyph2-9" x="383.700439" y="328.96875"/>
  <use xlink:href="#glyph2-8" x="388.427734" y="328.96875"/>
</g>
<g style="fill:rgb(45.098039%,41.960784%,36.862745%);fill-opacity:1;">
  <use xlink:href="#glyph3-1" x="36.542969" y="32.800781"/>
  <use xlink:href="#glyph3-2" x="43.212891" y="32.800781"/>
  <use xlink:href="#glyph3-3" x="45.991211" y="32.800781"/>
  <use xlink:href="#glyph3-4" x="50.991211" y="32.800781"/>
  <use xlink:href="#glyph3-5" x="53.212891" y="32.800781"/>
  <use xlink:href="#glyph3-6" x="58.774414" y="32.800781"/>
  <use xlink:href="#glyph3-7" x="61.552734" y="32.800781"/>
  <use xlink:href="#glyph3-8" x="64.331055" y="32.800781"/>
  <use xlink:href="#glyph3-9" x="72.661133" y="32.800781"/>
  <use xlink:href="#glyph3-10" x="78.222656" y="32.800781"/>
  <use xlink:href="#glyph3-11" x="83.222656" y="32.800781"/>
  <use xlink:href="#glyph3-12" x="86.552734" y="32.800781"/>
  <use xlink:href="#glyph3-13" x="92.114258" y="32.800781"/>
  <use xlink:href="#glyph3-10" x="97.675781" y="32.800781"/>
  <use xlink:href="#glyph3-4" x="102.675781" y="32.800781"/>
  <use xlink:href="#glyph3-9" x="104.897461" y="32.800781"/>
  <use xlink:href="#glyph3-14" x="110.458984" y="32.800781"/>
  <use xlink:href="#glyph3-14" x="115.458984" y="32.800781"/>
  <use xlink:href="#glyph3-15" x="120.458984" y="32.800781"/>
  <use xlink:href="#glyph3-10" x="122.680664" y="32.800781"/>
</g>
<g style="fill:rgb(15.294118%,13.72549%,12.156863%);fill-opacity:1;">
  <use xlink:href="#glyph4-1" x="36.542969" y="17.050781"/>
  <use xlink:href="#glyph4-2" x="41.991211" y="17.050781"/>
  <use xlink:href="#glyph4-3" x="49.777344" y="17.050781"/>
  <use xlink:href="#glyph4-4" x="58.329102" y="17.050781"/>
  <use xlink:href="#glyph4-1" x="66.880859" y="17.050781"/>
  <use xlink:href="#glyph4-5" x="72.329102" y="17.050781"/>
</g>
<g style="fill:rgb(45.098039%,41.960784%,36.862745%);fill-opacity:1;">
  <use xlink:href="#glyph5-1" x="36.542969" y="351.257812"/>
  <use xlink:href="#glyph5-2" x="42.320312" y="351.257812"/>
  <use xlink:href="#glyph5-3" x="46.769531" y="351.257812"/>
  <use xlink:href="#glyph5-4" x="53.433594" y="351.257812"/>
  <use xlink:href="#glyph5-5" x="57.882812" y="351.257812"/>
  <use xlink:href="#glyph5-6" x="59.660156" y="351.257812"/>
  <use xlink:href="#glyph5-7" x="61.4375" y="351.257812"/>
  <use xlink:href="#glyph5-8" x="65.886719" y="351.257812"/>
  <use xlink:href="#glyph5-9" x="70.335938" y="351.257812"/>
  <use xlink:href="#glyph5-10" x="72.558594" y="351.257812"/>
  <use xlink:href="#glyph5-11" x="77.007812" y="351.257812"/>
  <use xlink:href="#glyph5-12" x="81.007812" y="351.257812"/>
  <use xlink:href="#glyph5-9" x="83.230469" y="351.257812"/>
  <use xlink:href="#glyph5-13" x="85.453125" y="351.257812"/>
  <use xlink:href="#glyph5-6" x="91.675781" y="351.257812"/>
  <use xlink:href="#glyph5-5" x="93.453125" y="351.257812"/>
  <use xlink:href="#glyph5-14" x="95.230469" y="351.257812"/>
  <use xlink:href="#glyph5-7" x="99.230469" y="351.257812"/>
  <use xlink:href="#glyph5-15" x="103.679688" y="351.257812"/>
  <use xlink:href="#glyph5-9" x="106.34375" y="351.257812"/>
  <use xlink:href="#glyph5-16" x="108.566406" y="351.257812"/>
  <use xlink:href="#glyph5-17" x="113.453125" y="351.257812"/>
  <use xlink:href="#glyph5-2" x="117.902344" y="351.257812"/>
  <use xlink:href="#glyph5-18" x="122.351562" y="351.257812"/>
</g>
</g>
</svg>
